  0
SECTION
  2
HEADER
  9
$ACADVER
  1
AC1006
  0
ENDSEC
  0
SECTION
  2
TABLES
  0
TABLE
  2
LTYPE
 70
    9
  0
LTYPE
  2
CONTINUOUS
 70
   64
  3
SOLID
 72
   65
 73
    0
 40
0.0
  0
LTYPE
  2
DASHED
 70
   64
  3
_ _ _ _ _ _ _ _ _ _ _ _ _ _ _ _ _ _ _ _ _ _ _
 72
   65
 73
    2
 40
4.0
 49
3.0
 49
-1.0
  0
LTYPE
  2
DOT
 70
   64
  3
...............................................
 72
   65
 73
    2
 40
2.0
 49
1.0
 49
-1.0
  0
LTYPE
  2
DASHDOT
 70
   64
  3
____ _ ____ _ ____ _ ____ _ ____ _ ____ _ ____
 72
   65
 73
    4
 40
8.0
 49
5.0
 49
-1.0
 49
1.0
 49
-1.0
  0
LTYPE
  2
DIVIDE
 70
   64
  3
_____ _ _ _____ _ _ _____ _ _ _____ _ _ ____
 72
   65
 73
    6
 40
10.0
 49
5.0
 49
-1.0
 49
1.0
 49
-1.0
 49
1.0
 49
-1.0
  0
ENDTAB
  0
TABLE
  2
LAYER
 70
    2
  0
LAYER
  2
NULL
 70
   64
 62
    7
  6
CONTINUOUS
  0
LAYER
  2
Layer0
 70
   64
 62
    7
  6
CONTINUOUS
  0
ENDTAB
  0
ENDSEC
  0
SECTION
  2
ENTITIES
  0
CIRCLE
  8
Layer0
  6
CONTINUOUS
 62
8
 10
76.000000000000
 20
156.820000000000
 40
0.700000000000
  0
CIRCLE
  8
Layer0
  6
CONTINUOUS
 62
8
 10
64.000000000000
 20
156.820000000000
 40
0.700000000000
  0
CIRCLE
  8
Layer0
  6
CONTINUOUS
 62
8
 10
64.000000000000
 20
156.820000000000
 40
0.700000000000
  0
CIRCLE
  8
Layer0
  6
CONTINUOUS
 62
8
 10
56.700000000000
 20
156.820000000000
 40
1.250000000000
  0
CIRCLE
  8
Layer0
  6
CONTINUOUS
 62
8
 10
83.300000000000
 20
156.820000000000
 40
1.250000000000
  0
CIRCLE
  8
Layer0
  6
CONTINUOUS
 62
8
 10
99.631211945876
 20
160.320000000000
 40
0.800000000000
  0
CIRCLE
  8
Layer0
  6
CONTINUOUS
 62
8
 10
92.631211945876
 20
160.320000000000
 40
0.800000000000
  0
ARC
  8
Layer0
  6
CONTINUOUS
 62
8
 10
96.131211945876
 20
160.320000000000
 40
2.100000000000
 50
0.000000000000
 51
180.000000000000
  0
ARC
  8
Layer0
  6
CONTINUOUS
 62
8
 10
92.631211945876
 20
160.320000000000
 40
1.400000000000
 50
-10.044826275948
 51
0.000000000000
  0
ARC
  8
Layer0
  6
CONTINUOUS
 62
8
 10
99.631211945876
 20
160.320000000000
 40
1.400000000000
 50
-180.000000000000
 51
0.000000000000
  0
LINE
  8
Layer0
  6
CONTINUOUS
 62
8
 10
53.200000000000
 20
163.070000000000
 11
53.450000000000
 21
163.070000000000
  0
LINE
  8
Layer0
  6
CONTINUOUS
 62
8
 10
54.200000000000
 20
165.820000000000
 11
54.200000000000
 21
163.820000000000
  0
LINE
  8
Layer0
  6
CONTINUOUS
 62
8
 10
59.200000000000
 20
165.820000000000
 11
59.200000000000
 21
163.820000000000
  0
LINE
  8
Layer0
  6
CONTINUOUS
 62
8
 10
80.800000000000
 20
165.820000000000
 11
80.800000000000
 21
163.820000000000
  0
LINE
  8
Layer0
  6
CONTINUOUS
 62
8
 10
85.800000000000
 20
165.820000000000
 11
85.800000000000
 21
164.002377218387
  0
LINE
  8
Layer0
  6
CONTINUOUS
 62
8
 10
56.700000000000
 20
151.820000000000
 11
61.000000000000
 21
151.820000000000
  0
LINE
  8
Layer0
  6
CONTINUOUS
 62
8
 10
82.665126776279
 20
151.820000000000
 11
84.163036227341
 21
151.820000000000
  0
ARC
  8
Layer0
  6
CONTINUOUS
 62
8
 10
84.163036227341
 20
161.820000000000
 40
10.000000000000
 50
270.000000000000
 51
349.955173724052
  0
LINE
  8
Layer0
  6
CONTINUOUS
 62
8
 10
61.750000000000
 20
151.070000000000
 11
61.750000000000
 21
150.570000000000
  0
LINE
  8
Layer0
  6
CONTINUOUS
 62
8
 10
78.250000000000
 20
151.070000000000
 11
78.250000000000
 21
150.570000000000
  0
LINE
  8
Layer0
  6
CONTINUOUS
 62
8
 10
61.750000000000
 20
150.570000000000
 11
61.750000000000
 21
149.070000000000
  0
LINE
  8
Layer0
  6
CONTINUOUS
 62
8
 10
78.250000000000
 20
150.570000000000
 11
78.250000000000
 21
149.070000000000
  0
LINE
  8
Layer0
  6
CONTINUOUS
 62
8
 10
61.750000000000
 20
149.070000000000
 11
78.250000000000
 21
149.070000000000
  0
LINE
  8
Layer0
  6
CONTINUOUS
 62
8
 10
64.250000000000
 20
150.570000000000
 11
64.250000000000
 21
151.070000000000
  0
LINE
  8
Layer0
  6
CONTINUOUS
 62
8
 10
75.750000000000
 20
150.570000000000
 11
75.750000000000
 21
151.070000000000
  0
ARC
  8
Layer0
  6
CONTINUOUS
 62
8
 10
61.000000000000
 20
151.070000000000
 40
0.750000000000
 50
0.000000000000
 51
90.000000000000
  0
ARC
  8
Layer0
  6
CONTINUOUS
 62
8
 10
65.000000000000
 20
151.070000000000
 40
0.750000000000
 50
90.000000000000
 51
180.000000000000
  0
ARC
  8
Layer0
  6
CONTINUOUS
 62
8
 10
75.000000000000
 20
151.070000000000
 40
0.750000000000
 50
0.000000000000
 51
90.000000000000
  0
ARC
  8
Layer0
  6
CONTINUOUS
 62
8
 10
79.000000000000
 20
151.070000000000
 40
0.750000000000
 50
90.000000000000
 51
180.000000000000
  0
LINE
  8
Layer0
  6
CONTINUOUS
 62
8
 10
79.000000000000
 20
151.820000000000
 11
82.665126776279
 21
151.820000000000
  0
ARC
  8
Layer0
  6
CONTINUOUS
 62
8
 10
53.450000000000
 20
163.820000000000
 40
0.750000000000
 50
-90.000000000000
 51
0.000000000000
  0
ARC
  8
Layer0
  6
CONTINUOUS
 62
8
 10
59.950000000000
 20
163.820000000000
 40
0.750000000000
 50
180.000000000000
 51
270.000000000000
  0
ARC
  8
Layer0
  6
CONTINUOUS
 62
8
 10
80.050000000000
 20
163.820000000000
 40
0.750000000000
 50
-90.000000000000
 51
0.000000000000
  0
LINE
  8
Layer0
  6
CONTINUOUS
 62
8
 10
54.200000000000
 20
165.820000000000
 11
59.200000000000
 21
165.820000000000
  0
LINE
  8
Layer0
  6
CONTINUOUS
 62
8
 10
80.800000000000
 20
165.820000000000
 11
85.800000000000
 21
165.820000000000
  0
ARC
  8
Layer0
  6
CONTINUOUS
 62
8
 10
56.700000000000
 20
156.820000000000
 40
5.000000000000
 50
180.000000000000
 51
270.000000000000
  0
LINE
  8
Layer0
  6
CONTINUOUS
 62
8
 10
51.700000000000
 20
156.820000000000
 11
51.700000000000
 21
161.570000000000
  0
LINE
  8
Layer0
  6
CONTINUOUS
 62
8
 10
51.700000000000
 20
158.820000000000
 11
48.950000000000
 21
158.820000000000
  0
LINE
  8
Layer0
  6
CONTINUOUS
 62
8
 10
48.950000000000
 20
156.820000000000
 11
48.950000000000
 21
158.820000000000
  0
LINE
  8
Layer0
  6
DOT
 62
8
 10
50.450000000000
 20
156.820000000000
 11
50.450000000000
 21
158.820000000000
  0
LINE
  8
Layer0
  6
DOT
 62
8
 10
64.250000000000
 20
150.570000000000
 11
61.750000000000
 21
150.570000000000
  0
LINE
  8
Layer0
  6
DOT
 62
8
 10
75.750000000000
 20
150.570000000000
 11
78.250000000000
 21
150.570000000000
  0
LINE
  8
Layer0
  6
CONTINUOUS
 62
8
 10
51.700000000000
 20
156.820000000000
 11
48.950000000000
 21
156.820000000000
  0
LINE
  8
Layer0
  6
CONTINUOUS
 62
8
 10
85.800000000000
 20
164.002377218387
 11
85.800000000000
 21
163.820000000000
  0
ARC
  8
Layer0
  6
CONTINUOUS
 62
8
 10
96.131211945876
 20
160.320000000000
 40
4.900000000000
 50
-0.000000000000
 51
145.859478264219
  0
ARC
  8
Layer0
  6
CONTINUOUS
 62
8
 10
86.550000000000
 20
163.820000000000
 40
0.750000000000
 50
180.000000000000
 51
270.000000000000
  0
LINE
  8
Layer0
  6
CONTINUOUS
 62
8
 10
86.550000000000
 20
163.070000000000
 11
92.075660195498
 21
163.070000000000
  0
ARC
  8
Layer0
  6
CONTINUOUS
 62
8
 10
79.250000000000
 20
156.820000000000
 40
6.250000000000
 50
90.000000000000
 51
147.140119621111
  0
LINE
  8
Layer0
  6
CONTINUOUS
 62
8
 10
59.950000000000
 20
163.070000000000
 11
60.750000000000
 21
163.070000000000
  0
LINE
  8
Layer0
  6
CONTINUOUS
 62
8
 10
80.050000000000
 20
163.070000000000
 11
79.250000000000
 21
163.070000000000
  0
ARC
  8
Layer0
  6
CONTINUOUS
 62
8
 10
53.200000000000
 20
161.570000000000
 40
1.500000000000
 50
90.000000000000
 51
180.000000000000
  0
LINE
  8
Layer0
  6
DOT
 62
8
 10
54.200000000000
 20
164.320000000000
 11
59.200000000000
 21
164.320000000000
  0
LINE
  8
Layer0
  6
DOT
 62
8
 10
80.800000000000
 20
164.320000000000
 11
85.800000000000
 21
164.320000000000
  0
LINE
  8
Layer0
  6
CONTINUOUS
 62
8
 10
167.312423891753
 20
90.560000000000
 11
167.312423891753
 21
88.910000000000
  0
LINE
  8
Layer0
  6
CONTINUOUS
 62
8
 10
183.812423891753
 20
90.560000000000
 11
183.812423891753
 21
88.910000000000
  0
LINE
  8
Layer0
  6
CONTINUOUS
 62
8
 10
169.812423891753
 20
89.810000000000
 11
169.812423891753
 21
88.910000000000
  0
LINE
  8
Layer0
  6
CONTINUOUS
 62
8
 10
181.312423891753
 20
89.810000000000
 11
181.312423891753
 21
88.910000000000
  0
LINE
  8
Layer0
  6
CONTINUOUS
 62
8
 10
173.312423891753
 20
89.810000000000
 11
173.312423891753
 21
88.910000000000
  0
LINE
  8
Layer0
  6
CONTINUOUS
 62
8
 10
177.812423891753
 20
89.810000000000
 11
177.812423891753
 21
88.910000000000
  0
ARC
  8
Layer0
  6
CONTINUOUS
 62
8
 10
67.000000000000
 20
151.070000000000
 40
0.750000000000
 50
0.000000000000
 51
90.000000000000
  0
ARC
  8
Layer0
  6
CONTINUOUS
 62
8
 10
73.000000000000
 20
151.070000000000
 40
0.750000000000
 50
90.000000000000
 51
180.000000000000
  0
LINE
  8
Layer0
  6
CONTINUOUS
 62
8
 10
67.750000000000
 20
150.570000000000
 11
67.750000000000
 21
151.070000000000
  0
LINE
  8
Layer0
  6
CONTINUOUS
 62
8
 10
72.250000000000
 20
150.570000000000
 11
72.250000000000
 21
151.070000000000
  0
LINE
  8
Layer0
  6
CONTINUOUS
 62
8
 10
167.312423891753
 20
87.410000000000
 11
169.812423891753
 21
87.410000000000
  0
LINE
  8
Layer0
  6
CONTINUOUS
 62
8
 10
174.312423891753
 20
87.410000000000
 11
176.812423891753
 21
87.410000000000
  0
LINE
  8
Layer0
  6
CONTINUOUS
 62
8
 10
181.312423891753
 20
87.410000000000
 11
183.812423891753
 21
87.410000000000
  0
CIRCLE
  8
Layer0
  6
CONTINUOUS
 62
8
 10
175.562423891753
 20
110.910000000000
 40
2.150000000000
  0
CIRCLE
  8
Layer0
  6
CONTINUOUS
 62
8
 10
175.562423891753
 20
107.410000000000
 40
0.800000000000
  0
CIRCLE
  8
Layer0
  6
CONTINUOUS
 62
8
 10
175.562423891753
 20
114.410000000000
 40
0.800000000000
  0
LINE
  8
Layer0
  6
CONTINUOUS
 62
8
 10
170.562423891753
 20
90.560000000000
 11
172.562423891753
 21
90.560000000000
  0
LINE
  8
Layer0
  6
CONTINUOUS
 62
8
 10
167.312423891753
 20
131.260000000000
 11
167.312423891753
 21
132.910000000000
  0
LINE
  8
Layer0
  6
CONTINUOUS
 62
8
 10
183.812423891753
 20
131.260000000000
 11
183.812423891753
 21
132.910000000000
  0
LINE
  8
Layer0
  6
CONTINUOUS
 62
8
 10
169.812423891753
 20
132.010000000000
 11
169.812423891753
 21
132.910000000000
  0
LINE
  8
Layer0
  6
CONTINUOUS
 62
8
 10
181.312423891753
 20
132.010000000000
 11
181.312423891753
 21
132.910000000000
  0
LINE
  8
Layer0
  6
CONTINUOUS
 62
8
 10
173.312423891753
 20
132.010000000000
 11
173.312423891753
 21
132.910000000000
  0
LINE
  8
Layer0
  6
CONTINUOUS
 62
8
 10
177.812423891753
 20
132.010000000000
 11
177.812423891753
 21
132.910000000000
  0
LINE
  8
Layer0
  6
CONTINUOUS
 62
8
 10
167.312423891753
 20
134.410000000000
 11
169.812423891753
 21
134.410000000000
  0
LINE
  8
Layer0
  6
CONTINUOUS
 62
8
 10
174.312423891753
 20
134.410000000000
 11
176.812423891753
 21
134.410000000000
  0
LINE
  8
Layer0
  6
CONTINUOUS
 62
8
 10
181.312423891753
 20
134.410000000000
 11
183.812423891753
 21
134.410000000000
  0
LINE
  8
Layer0
  6
CONTINUOUS
 62
8
 10
170.562423891753
 20
131.260000000000
 11
172.562423891753
 21
131.260000000000
  0
LINE
  8
Layer0
  6
CONTINUOUS
 62
8
 10
167.312423891753
 20
90.560000000000
 11
167.312423891753
 21
131.260000000000
  0
LINE
  8
Layer0
  6
CONTINUOUS
 62
8
 10
183.812423891753
 20
90.560000000000
 11
183.812423891753
 21
131.260000000000
  0
LINE
  8
Layer0
  6
CONTINUOUS
 62
8
 10
172.745084125763
 20
117.485000000000
 11
178.379763657742
 21
117.485000000000
  0
ARC
  8
Layer0
  6
CONTINUOUS
 62
8
 10
169.969242073571
 20
117.485000000000
 40
1.000000000000
 50
0.000000000000
 51
0.000000000000
  0
ARC
  8
Layer0
  6
CONTINUOUS
 62
8
 10
181.312423891753
 20
117.641818181818
 40
1.000000000000
 50
90.000000000000
 51
90.000000000000
  0
LINE
  8
Layer0
  6
CONTINUOUS
 62
8
 10
178.917374122370
 20
118.757948361047
 11
176.100034356381
 21
121.654278961597
  0
LINE
  8
Layer0
  6
CONTINUOUS
 62
8
 10
172.207473661135
 20
118.757948361047
 11
175.024813427124
 21
121.654278961597
  0
LINE
  8
Layer0
  6
CONTINUOUS
 62
8
 10
172.745084125763
 20
128.985000000000
 11
178.379763657742
 21
128.985000000000
  0
ARC
  8
Layer0
  6
CONTINUOUS
 62
8
 10
181.312423891753
 20
128.828181818182
 40
1.000000000000
 50
270.000000000000
 51
270.000000000000
  0
LINE
  8
Layer0
  6
CONTINUOUS
 62
8
 10
178.917374122370
 20
127.712051638953
 11
176.100034356381
 21
124.815721038403
  0
LINE
  8
Layer0
  6
CONTINUOUS
 62
8
 10
172.207473661135
 20
127.712051638953
 11
175.024813427124
 21
124.815721038403
  0
LINE
  8
Layer0
  6
CONTINUOUS
 62
8
 10
169.812423891753
 20
126.052339765989
 11
169.812423891753
 21
120.417660234011
  0
ARC
  8
Layer0
  6
CONTINUOUS
 62
8
 10
169.812423891753
 20
128.828181818182
 40
1.000000000000
 50
270.000000000000
 51
270.000000000000
  0
LINE
  8
Layer0
  6
CONTINUOUS
 62
8
 10
171.085372252800
 20
119.880049769383
 11
173.981702853350
 21
122.697389535372
  0
LINE
  8
Layer0
  6
CONTINUOUS
 62
8
 10
171.085372252800
 20
126.589950230617
 11
173.981702853350
 21
123.772610464628
  0
LINE
  8
Layer0
  6
CONTINUOUS
 62
8
 10
181.312423891753
 20
126.052339765989
 11
181.312423891753
 21
120.417660234011
  0
LINE
  8
Layer0
  6
CONTINUOUS
 62
8
 10
180.039475530705
 20
119.880049769383
 11
177.143144930156
 21
122.697389535372
  0
LINE
  8
Layer0
  6
CONTINUOUS
 62
8
 10
180.039475530705
 20
126.589950230617
 11
177.143144930156
 21
123.772610464628
  0
ARC
  8
Layer0
  6
CONTINUOUS
 62
8
 10
180.562423891753
 20
126.052339765989
 40
0.750000000000
 50
0.000000000001
 51
134.207942907838
  0
ARC
  8
Layer0
  6
CONTINUOUS
 62
8
 10
180.562423891753
 20
120.417660234011
 40
0.750000000000
 50
-134.207942907837
 51
0.000000000000
  0
ARC
  8
Layer0
  6
CONTINUOUS
 62
8
 10
178.379763657742
 20
118.235000000000
 40
0.750000000000
 50
-89.999999999999
 51
44.207942907838
  0
ARC
  8
Layer0
  6
CONTINUOUS
 62
8
 10
172.745084125763
 20
118.235000000000
 40
0.750000000000
 50
135.792057092163
 51
270.000000000000
  0
ARC
  8
Layer0
  6
CONTINUOUS
 62
8
 10
175.562423891753
 20
121.131330600550
 40
0.750000000000
 50
44.207942907839
 51
135.792057092164
  0
ARC
  8
Layer0
  6
CONTINUOUS
 62
8
 10
175.562423891753
 20
125.338669399450
 40
0.750000000000
 50
224.207942907840
 51
315.792057092164
  0
ARC
  8
Layer0
  6
CONTINUOUS
 62
8
 10
178.379763657742
 20
128.235000000000
 40
0.750000000000
 50
-44.207942907837
 51
90.000000000000
  0
ARC
  8
Layer0
  6
CONTINUOUS
 62
8
 10
172.745084125763
 20
128.235000000000
 40
0.750000000000
 50
89.999999999999
 51
224.207942907837
  0
ARC
  8
Layer0
  6
CONTINUOUS
 62
8
 10
170.562423891753
 20
126.052339765989
 40
0.750000000000
 50
45.792057092162
 51
180.000000000000
  0
ARC
  8
Layer0
  6
CONTINUOUS
 62
8
 10
173.458754492302
 20
123.235000000000
 40
0.750000000000
 50
-45.792057092164
 51
45.792057092161
  0
ARC
  8
Layer0
  6
CONTINUOUS
 62
8
 10
170.562423891753
 20
120.417660234011
 40
0.750000000000
 50
180.000000000000
 51
314.207942907838
  0
LINE
  8
Layer0
  6
CONTINUOUS
 62
8
 10
172.745084125763
 20
104.335000000000
 11
178.379763657742
 21
104.335000000000
  0
ARC
  8
Layer0
  6
CONTINUOUS
 62
8
 10
169.969242073571
 20
104.335000000000
 40
1.000000000000
 50
0.000000000000
 51
0.000000000000
  0
ARC
  8
Layer0
  6
CONTINUOUS
 62
8
 10
181.312423891753
 20
104.178181818182
 40
1.000000000000
 50
270.000000000000
 51
270.000000000000
  0
LINE
  8
Layer0
  6
CONTINUOUS
 62
8
 10
178.917374122370
 20
103.062051638953
 11
176.100034356381
 21
100.165721038403
  0
LINE
  8
Layer0
  6
CONTINUOUS
 62
8
 10
172.207473661135
 20
103.062051638953
 11
175.024813427124
 21
100.165721038403
  0
LINE
  8
Layer0
  6
CONTINUOUS
 62
8
 10
172.745084125763
 20
92.835000000000
 11
178.379763657742
 21
92.835000000000
  0
ARC
  8
Layer0
  6
CONTINUOUS
 62
8
 10
181.312423891753
 20
92.991818181818
 40
1.000000000000
 50
90.000000000000
 51
90.000000000000
  0
LINE
  8
Layer0
  6
CONTINUOUS
 62
8
 10
178.917374122370
 20
94.107948361047
 11
176.100034356381
 21
97.004278961597
  0
LINE
  8
Layer0
  6
CONTINUOUS
 62
8
 10
172.207473661135
 20
94.107948361047
 11
175.024813427124
 21
97.004278961597
  0
LINE
  8
Layer0
  6
CONTINUOUS
 62
8
 10
169.812423891753
 20
95.767660234011
 11
169.812423891753
 21
101.402339765989
  0
ARC
  8
Layer0
  6
CONTINUOUS
 62
8
 10
169.812423891753
 20
92.991818181818
 40
1.000000000000
 50
90.000000000000
 51
90.000000000000
  0
LINE
  8
Layer0
  6
CONTINUOUS
 62
8
 10
171.085372252800
 20
101.939950230617
 11
173.981702853350
 21
99.122610464628
  0
LINE
  8
Layer0
  6
CONTINUOUS
 62
8
 10
171.085372252800
 20
95.230049769383
 11
173.981702853350
 21
98.047389535372
  0
LINE
  8
Layer0
  6
CONTINUOUS
 62
8
 10
181.312423891753
 20
95.767660234011
 11
181.312423891753
 21
101.402339765989
  0
LINE
  8
Layer0
  6
CONTINUOUS
 62
8
 10
180.039475530705
 20
101.939950230617
 11
177.143144930156
 21
99.122610464628
  0
LINE
  8
Layer0
  6
CONTINUOUS
 62
8
 10
180.039475530705
 20
95.230049769383
 11
177.143144930156
 21
98.047389535372
  0
ARC
  8
Layer0
  6
CONTINUOUS
 62
8
 10
180.562423891753
 20
95.767660234011
 40
0.750000000000
 50
-134.207942907837
 51
0.000000000000
  0
ARC
  8
Layer0
  6
CONTINUOUS
 62
8
 10
180.562423891753
 20
101.402339765989
 40
0.750000000000
 50
0.000000000001
 51
134.207942907838
  0
ARC
  8
Layer0
  6
CONTINUOUS
 62
8
 10
178.379763657742
 20
103.585000000000
 40
0.750000000000
 50
-44.207942907837
 51
90.000000000000
  0
ARC
  8
Layer0
  6
CONTINUOUS
 62
8
 10
172.745084125763
 20
103.585000000000
 40
0.750000000000
 50
90.000000000001
 51
224.207942907838
  0
ARC
  8
Layer0
  6
CONTINUOUS
 62
8
 10
175.562423891753
 20
100.688669399450
 40
0.750000000000
 50
224.207942907839
 51
315.792057092164
  0
ARC
  8
Layer0
  6
CONTINUOUS
 62
8
 10
175.562423891753
 20
96.481330600550
 40
0.750000000000
 50
44.207942907840
 51
135.792057092164
  0
ARC
  8
Layer0
  6
CONTINUOUS
 62
8
 10
178.379763657742
 20
93.585000000000
 40
0.750000000000
 50
-89.999999999999
 51
44.207942907838
  0
ARC
  8
Layer0
  6
CONTINUOUS
 62
8
 10
172.745084125763
 20
93.585000000000
 40
0.750000000000
 50
135.792057092163
 51
270.000000000000
  0
ARC
  8
Layer0
  6
CONTINUOUS
 62
8
 10
170.562423891753
 20
95.767660234011
 40
0.750000000000
 50
180.000000000001
 51
314.207942907838
  0
ARC
  8
Layer0
  6
CONTINUOUS
 62
8
 10
173.458754492302
 20
98.585000000000
 40
0.750000000000
 50
-45.792057092164
 51
45.792057092161
  0
ARC
  8
Layer0
  6
CONTINUOUS
 62
8
 10
170.562423891753
 20
101.402339765989
 40
0.750000000000
 50
45.792057092162
 51
180.000000000000
  0
LINE
  8
Layer0
  6
CONTINUOUS
 62
8
 10
183.812423891753
 20
134.410000000000
 11
194.612423891753
 21
134.410000000000
  0
LINE
  8
Layer0
  6
CONTINUOUS
 62
8
 10
196.612423891753
 20
132.410000000000
 11
196.612423891753
 21
120.910000000000
  0
LINE
  8
Layer0
  6
CONTINUOUS
 62
8
 10
181.312423891753
 20
134.410000000000
 11
144.531211945876
 21
134.410000000000
  0
LINE
  8
Layer0
  6
CONTINUOUS
 62
8
 10
144.531211945876
 20
134.410000000000
 11
144.531211945876
 21
132.910000000000
  0
LINE
  8
Layer0
  6
CONTINUOUS
 62
8
 10
195.112423891753
 20
132.410000000000
 11
195.112423891753
 21
120.910000000000
  0
LINE
  8
Layer0
  6
CONTINUOUS
 62
8
 10
191.362423891753
 20
132.910000000000
 11
191.362423891753
 21
130.410000000000
  0
LINE
  8
Layer0
  6
CONTINUOUS
 62
8
 10
186.362423891753
 20
132.910000000000
 11
186.362423891753
 21
130.410000000000
  0
LINE
  8
Layer0
  6
CONTINUOUS
 62
8
 10
164.762423891753
 20
132.910000000000
 11
164.762423891753
 21
130.410000000000
  0
LINE
  8
Layer0
  6
CONTINUOUS
 62
8
 10
159.762423891753
 20
132.910000000000
 11
159.762423891753
 21
130.410000000000
  0
CIRCLE
  8
Layer0
  6
CONTINUOUS
 62
8
 10
162.262423891753
 20
130.410000000000
 40
1.000000000000
  0
CIRCLE
  8
Layer0
  6
CONTINUOUS
 62
8
 10
188.862423891753
 20
130.410000000000
 40
1.000000000000
  0
ARC
  8
Layer0
  6
CONTINUOUS
 62
8
 10
188.862423891753
 20
130.410000000000
 40
2.500000000000
 50
-180.000000000000
 51
0.000000000000
  0
ARC
  8
Layer0
  6
CONTINUOUS
 62
8
 10
162.262423891753
 20
130.410000000000
 40
2.500000000000
 50
-180.000000000000
 51
0.000000000000
  0
LINE
  8
Layer0
  6
CONTINUOUS
 62
8
 10
183.812423891753
 20
87.410000000000
 11
194.612423891753
 21
87.410000000000
  0
LINE
  8
Layer0
  6
CONTINUOUS
 62
8
 10
196.612423891753
 20
89.410000000000
 11
196.612423891753
 21
100.910000000000
  0
LINE
  8
Layer0
  6
CONTINUOUS
 62
8
 10
181.312423891753
 20
87.410000000000
 11
146.378799717556
 21
87.410000000000
  0
LINE
  8
Layer0
  6
CONTINUOUS
 62
8
 10
195.112423891753
 20
89.410000000000
 11
195.112423891753
 21
100.910000000000
  0
LINE
  8
Layer0
  6
CONTINUOUS
 62
8
 10
191.362423891753
 20
88.910000000000
 11
191.362423891753
 21
91.410000000000
  0
LINE
  8
Layer0
  6
CONTINUOUS
 62
8
 10
186.362423891753
 20
88.910000000000
 11
186.362423891753
 21
91.410000000000
  0
LINE
  8
Layer0
  6
CONTINUOUS
 62
8
 10
164.762423891753
 20
88.910000000000
 11
164.762423891753
 21
91.410000000000
  0
LINE
  8
Layer0
  6
CONTINUOUS
 62
8
 10
159.762423891753
 20
88.910000000000
 11
159.762423891753
 21
91.410000000000
  0
CIRCLE
  8
Layer0
  6
CONTINUOUS
 62
8
 10
162.262423891753
 20
91.410000000000
 40
1.000000000000
  0
CIRCLE
  8
Layer0
  6
CONTINUOUS
 62
8
 10
188.862423891753
 20
91.410000000000
 40
1.000000000000
  0
ARC
  8
Layer0
  6
CONTINUOUS
 62
8
 10
188.862423891753
 20
91.410000000000
 40
2.500000000000
 50
0.000000000000
 51
180.000000000000
  0
ARC
  8
Layer0
  6
CONTINUOUS
 62
8
 10
162.262423891753
 20
91.410000000000
 40
2.500000000000
 50
0.000000000000
 51
180.000000000000
  0
LINE
  8
Layer0
  6
CONTINUOUS
 62
8
 10
146.378799717556
 20
87.410000000000
 11
146.378799717556
 21
88.910000000000
  0
CIRCLE
  8
Layer0
  6
CONTINUOUS
 62
8
 10
180.562423891753
 20
110.910000000000
 40
0.800000000000
  0
CIRCLE
  8
Layer0
  6
CONTINUOUS
 62
8
 10
170.562423891753
 20
110.910000000000
 40
0.800000000000
  0
LINE
  8
Layer0
  6
CONTINUOUS
 62
8
 10
191.362423891753
 20
88.910000000000
 11
194.612423891753
 21
88.910000000000
  0
LINE
  8
Layer0
  6
CONTINUOUS
 62
8
 10
159.762423891753
 20
88.910000000000
 11
146.378799717556
 21
88.910000000000
  0
LINE
  8
Layer0
  6
CONTINUOUS
 62
8
 10
159.762423891753
 20
132.910000000000
 11
144.531211945876
 21
132.910000000000
  0
LINE
  8
Layer0
  6
CONTINUOUS
 62
8
 10
191.362423891753
 20
132.910000000000
 11
194.612423891753
 21
132.910000000000
  0
ARC
  8
Layer0
  6
CONTINUOUS
 62
8
 10
194.612423891753
 20
89.410000000000
 40
2.000000000000
 50
-90.000000000000
 51
0.000000000000
  0
ARC
  8
Layer0
  6
CONTINUOUS
 62
8
 10
194.612423891753
 20
89.410000000000
 40
0.500000000000
 50
-90.000000000000
 51
0.000000000000
  0
ARC
  8
Layer0
  6
CONTINUOUS
 62
8
 10
194.612423891753
 20
132.410000000000
 40
2.000000000000
 50
0.000000000000
 51
90.000000000000
  0
ARC
  8
Layer0
  6
CONTINUOUS
 62
8
 10
194.612423891753
 20
132.410000000000
 40
0.500000000000
 50
0.000000000000
 51
90.000000000000
  0
LINE
  8
Layer0
  6
CONTINUOUS
 62
8
 10
196.612423891753
 20
120.910000000000
 11
195.112423891753
 21
120.910000000000
  0
LINE
  8
Layer0
  6
CONTINUOUS
 62
8
 10
196.612423891753
 20
100.910000000000
 11
195.112423891753
 21
100.910000000000
  0
CIRCLE
  8
Layer0
  6
CONTINUOUS
 62
8
 10
76.000000000000
 20
65.000000000000
 40
0.700000000000
  0
CIRCLE
  8
Layer0
  6
CONTINUOUS
 62
8
 10
64.000000000000
 20
65.000000000000
 40
0.700000000000
  0
CIRCLE
  8
Layer0
  6
CONTINUOUS
 62
8
 10
64.000000000000
 20
65.000000000000
 40
0.700000000000
  0
CIRCLE
  8
Layer0
  6
CONTINUOUS
 62
8
 10
56.700000000000
 20
65.000000000000
 40
1.250000000000
  0
CIRCLE
  8
Layer0
  6
CONTINUOUS
 62
8
 10
83.300000000000
 20
65.000000000000
 40
1.250000000000
  0
CIRCLE
  8
Layer0
  6
CONTINUOUS
 62
8
 10
97.783624174197
 20
72.500000000000
 40
0.800000000000
  0
CIRCLE
  8
Layer0
  6
CONTINUOUS
 62
8
 10
90.783624174197
 20
72.500000000000
 40
0.800000000000
  0
ARC
  8
Layer0
  6
CONTINUOUS
 62
8
 10
94.283624174197
 20
72.500000000000
 40
2.100000000000
 50
-180.000000000000
 51
0.000000000000
  0
ARC
  8
Layer0
  6
CONTINUOUS
 62
8
 10
90.783624174197
 20
72.500000000000
 40
1.400000000000
 50
0.000000000000
 51
141.317812546511
  0
ARC
  8
Layer0
  6
CONTINUOUS
 62
8
 10
97.783624174197
 20
72.500000000000
 40
1.400000000000
 50
0.000000000000
 51
180.000000000000
  0
LINE
  8
Layer0
  6
CONTINUOUS
 62
8
 10
53.200000000000
 20
58.750000000000
 11
53.450000000000
 21
58.750000000000
  0
LINE
  8
Layer0
  6
CONTINUOUS
 62
8
 10
54.200000000000
 20
56.000000000000
 11
54.200000000000
 21
58.000000000000
  0
LINE
  8
Layer0
  6
CONTINUOUS
 62
8
 10
59.200000000000
 20
56.000000000000
 11
59.200000000000
 21
58.000000000000
  0
LINE
  8
Layer0
  6
CONTINUOUS
 62
8
 10
80.800000000000
 20
56.000000000000
 11
80.800000000000
 21
58.000000000000
  0
LINE
  8
Layer0
  6
CONTINUOUS
 62
8
 10
85.800000000000
 20
56.000000000000
 11
85.800000000000
 21
57.817622781613
  0
LINE
  8
Layer0
  6
CONTINUOUS
 62
8
 10
86.061214705442
 20
58.974449644566
 11
97.477021431977
 21
68.783521296442
  0
ARC
  8
Layer0
  6
CONTINUOUS
 62
8
 10
94.283624174197
 20
72.500000000000
 40
4.900000000000
 50
-49.329065568079
 51
0.000000000000
  0
LINE
  8
Layer0
  6
CONTINUOUS
 62
8
 10
56.700000000000
 20
70.000000000000
 11
61.000000000000
 21
70.000000000000
  0
ARC
  8
Layer0
  6
CONTINUOUS
 62
8
 10
82.665126776279
 20
79.000000000000
 40
9.000000000000
 50
-90.000000000000
 51
-38.682187453489
  0
LINE
  8
Layer0
  6
CONTINUOUS
 62
8
 10
61.750000000000
 20
70.750000000000
 11
61.750000000000
 21
71.250000000000
  0
LINE
  8
Layer0
  6
CONTINUOUS
 62
8
 10
78.250000000000
 20
70.750000000000
 11
78.250000000000
 21
71.250000000000
  0
LINE
  8
Layer0
  6
CONTINUOUS
 62
8
 10
61.750000000000
 20
71.250000000000
 11
61.750000000000
 21
72.750000000000
  0
LINE
  8
Layer0
  6
CONTINUOUS
 62
8
 10
78.250000000000
 20
71.250000000000
 11
78.250000000000
 21
72.750000000000
  0
LINE
  8
Layer0
  6
CONTINUOUS
 62
8
 10
61.750000000000
 20
72.750000000000
 11
78.250000000000
 21
72.750000000000
  0
LINE
  8
Layer0
  6
CONTINUOUS
 62
8
 10
64.250000000000
 20
71.250000000000
 11
64.250000000000
 21
70.750000000000
  0
LINE
  8
Layer0
  6
CONTINUOUS
 62
8
 10
75.750000000000
 20
71.250000000000
 11
75.750000000000
 21
70.750000000000
  0
ARC
  8
Layer0
  6
CONTINUOUS
 62
8
 10
61.000000000000
 20
70.750000000000
 40
0.750000000000
 50
-90.000000000000
 51
0.000000000000
  0
ARC
  8
Layer0
  6
CONTINUOUS
 62
8
 10
65.000000000000
 20
70.750000000000
 40
0.750000000000
 50
-180.000000000000
 51
-90.000000000000
  0
ARC
  8
Layer0
  6
CONTINUOUS
 62
8
 10
75.000000000000
 20
70.750000000000
 40
0.750000000000
 50
-90.000000000000
 51
0.000000000000
  0
ARC
  8
Layer0
  6
CONTINUOUS
 62
8
 10
79.000000000000
 20
70.750000000000
 40
0.750000000000
 50
180.000000000000
 51
270.000000000000
  0
LINE
  8
Layer0
  6
CONTINUOUS
 62
8
 10
79.000000000000
 20
70.000000000000
 11
82.665126776279
 21
70.000000000000
  0
ARC
  8
Layer0
  6
CONTINUOUS
 62
8
 10
53.450000000000
 20
58.000000000000
 40
0.750000000000
 50
0.000000000000
 51
90.000000000000
  0
ARC
  8
Layer0
  6
CONTINUOUS
 62
8
 10
59.950000000000
 20
58.000000000000
 40
0.750000000000
 50
90.000000000000
 51
180.000000000000
  0
ARC
  8
Layer0
  6
CONTINUOUS
 62
8
 10
80.050000000000
 20
58.000000000000
 40
0.750000000000
 50
0.000000000000
 51
90.000000000000
  0
LINE
  8
Layer0
  6
CONTINUOUS
 62
8
 10
54.200000000000
 20
56.000000000000
 11
59.200000000000
 21
56.000000000000
  0
LINE
  8
Layer0
  6
CONTINUOUS
 62
8
 10
80.800000000000
 20
56.000000000000
 11
85.800000000000
 21
56.000000000000
  0
ARC
  8
Layer0
  6
CONTINUOUS
 62
8
 10
56.700000000000
 20
65.000000000000
 40
5.000000000000
 50
-270.000000000000
 51
-180.000000000000
  0
LINE
  8
Layer0
  6
CONTINUOUS
 62
8
 10
51.700000000000
 20
65.000000000000
 11
51.700000000000
 21
60.250000000000
  0
LINE
  8
Layer0
  6
CONTINUOUS
 62
8
 10
51.700000000000
 20
63.000000000000
 11
48.950000000000
 21
63.000000000000
  0
LINE
  8
Layer0
  6
CONTINUOUS
 62
8
 10
48.950000000000
 20
65.000000000000
 11
48.950000000000
 21
63.000000000000
  0
LINE
  8
Layer0
  6
DOT
 62
8
 10
50.450000000000
 20
65.000000000000
 11
50.450000000000
 21
63.000000000000
  0
LINE
  8
Layer0
  6
DOT
 62
8
 10
64.250000000000
 20
71.250000000000
 11
61.750000000000
 21
71.250000000000
  0
LINE
  8
Layer0
  6
DOT
 62
8
 10
75.750000000000
 20
71.250000000000
 11
78.250000000000
 21
71.250000000000
  0
LINE
  8
Layer0
  6
CONTINUOUS
 62
8
 10
51.700000000000
 20
65.000000000000
 11
48.950000000000
 21
65.000000000000
  0
LINE
  8
Layer0
  6
CONTINUOUS
 62
8
 10
85.800000000000
 20
57.817622781613
 11
85.800000000000
 21
58.000000000000
  0
ARC
  8
Layer0
  6
CONTINUOUS
 62
8
 10
60.750000000000
 20
65.000000000000
 40
6.250000000000
 50
-90.000000000000
 51
-32.859880378889
  0
LINE
  8
Layer0
  6
CONTINUOUS
 62
8
 10
59.950000000000
 20
58.750000000000
 11
60.750000000000
 21
58.750000000000
  0
LINE
  8
Layer0
  6
CONTINUOUS
 62
8
 10
80.050000000000
 20
58.750000000000
 11
79.250000000000
 21
58.750000000000
  0
ARC
  8
Layer0
  6
CONTINUOUS
 62
8
 10
53.200000000000
 20
60.250000000000
 40
1.500000000000
 50
180.000000000000
 51
270.000000000000
  0
LINE
  8
Layer0
  6
DOT
 62
8
 10
54.200000000000
 20
57.500000000000
 11
59.200000000000
 21
57.500000000000
  0
LINE
  8
Layer0
  6
DOT
 62
8
 10
80.800000000000
 20
57.500000000000
 11
85.800000000000
 21
57.500000000000
  0
ARC
  8
Layer0
  6
CONTINUOUS
 62
8
 10
67.000000000000
 20
70.750000000000
 40
0.750000000000
 50
-90.000000000000
 51
0.000000000000
  0
ARC
  8
Layer0
  6
CONTINUOUS
 62
8
 10
73.000000000000
 20
70.750000000000
 40
0.750000000000
 50
180.000000000000
 51
270.000000000000
  0
LINE
  8
Layer0
  6
CONTINUOUS
 62
8
 10
64.250000000000
 20
71.250000000000
 11
67.750000000000
 21
71.250000000000
  0
LINE
  8
Layer0
  6
CONTINUOUS
 62
8
 10
72.250000000000
 20
71.250000000000
 11
75.750000000000
 21
71.250000000000
  0
LINE
  8
Layer0
  6
CONTINUOUS
 62
8
 10
67.750000000000
 20
71.250000000000
 11
67.750000000000
 21
70.750000000000
  0
LINE
  8
Layer0
  6
CONTINUOUS
 62
8
 10
72.250000000000
 20
71.250000000000
 11
72.250000000000
 21
70.750000000000
  0
LINE
  8
Layer0
  6
CONTINUOUS
 62
8
 10
85.800000000000
 20
57.500000000000
 11
85.800000000000
 21
58.405600863409
  0
ARC
  8
Layer0
  6
CONTINUOUS
 62
8
 10
86.550000000000
 20
58.405600863409
 40
0.750000000000
 50
130.670934431921
 51
180.000000000000
  0
ARC
  8
Layer0
  6
CONTINUOUS
 62
8
 10
177.666093291203
 20
98.585000000000
 40
0.750000000000
 50
134.207942907836
 51
225.792057092161
  0
ARC
  8
Layer0
  6
CONTINUOUS
 62
8
 10
177.666093291203
 20
123.235000000000
 40
0.750000000000
 50
134.207942907836
 51
225.792057092161
  0
LINE
  8
Layer0
  6
CONTINUOUS
 62
8
 10
66.000000000000
 20
65.000000000000
 11
66.000000000000
 21
61.608835008437
  0
ARC
  8
Layer0
  6
CONTINUOUS
 62
8
 10
70.000000000000
 20
65.000000000000
 40
4.000000000000
 50
0.000000000000
 51
180.000000000000
  0
LINE
  8
Layer0
  6
CONTINUOUS
 62
8
 10
74.000000000000
 20
65.000000000000
 11
74.000000000000
 21
61.608835008437
  0
ARC
  8
Layer0
  6
CONTINUOUS
 62
8
 10
79.250000000000
 20
65.000000000000
 40
6.250000000000
 50
-147.140119621111
 51
-90.000000000000
  0
LINE
  8
Layer0
  6
CONTINUOUS
 62
8
 10
178.562423891753
 20
90.560000000000
 11
180.562423891753
 21
90.560000000000
  0
LINE
  8
Layer0
  6
CONTINUOUS
 62
8
 10
178.562423891753
 20
131.260000000000
 11
180.562423891753
 21
131.260000000000
  0
LINE
  8
Layer0
  6
CONTINUOUS
 62
8
 10
65.000000000000
 20
70.000000000000
 11
67.000000000000
 21
70.000000000000
  0
LINE
  8
Layer0
  6
CONTINUOUS
 62
8
 10
73.000000000000
 20
70.000000000000
 11
75.000000000000
 21
70.000000000000
  0
LINE
  8
Layer0
  6
CONTINUOUS
 62
8
 10
65.000000000000
 20
151.820000000000
 11
67.000000000000
 21
151.820000000000
  0
LINE
  8
Layer0
  6
CONTINUOUS
 62
8
 10
73.000000000000
 20
151.820000000000
 11
75.000000000000
 21
151.820000000000
  0
LINE
  8
Layer0
  6
DOT
 62
8
 10
67.750000000000
 20
71.250000000000
 11
72.250000000000
 21
71.250000000000
  0
LINE
  8
Layer0
  6
DOT
 62
8
 10
67.750000000000
 20
150.570000000000
 11
72.200000000000
 21
150.570000000000
  0
LINE
  8
Layer0
  6
CONTINUOUS
 62
8
 10
64.250000000000
 20
150.570000000000
 11
67.750000000000
 21
150.570000000000
  0
LINE
  8
Layer0
  6
CONTINUOUS
 62
8
 10
72.250000000000
 20
150.570000000000
 11
75.750000000000
 21
150.570000000000
  0
LINE
  8
Layer0
  6
CONTINUOUS
 62
8
 10
35.718788054124
 20
134.410000000000
 11
18.968788054124
 21
134.410000000000
  0
LINE
  8
Layer0
  6
CONTINUOUS
 62
8
 10
36.868788054124
 20
87.410000000000
 11
18.968788054124
 21
87.410000000000
  0
LINE
  8
Layer0
  6
CONTINUOUS
 62
8
 10
36.868788054124
 20
88.910000000000
 11
18.968788054124
 21
88.910000000000
  0
LINE
  8
Layer0
  6
CONTINUOUS
 62
8
 10
35.718788054124
 20
132.910000000000
 11
18.968788054124
 21
132.910000000000
  0
LINE
  8
Layer0
  6
CONTINUOUS
 62
8
 10
18.968788054124
 20
134.410000000000
 11
18.968788054124
 21
127.910000000000
  0
LINE
  8
Layer0
  6
CONTINUOUS
 62
8
 10
20.468788054124
 20
93.910000000000
 11
20.468788054124
 21
88.910000000000
  0
LINE
  8
Layer0
  6
CONTINUOUS
 62
8
 10
20.468788054124
 20
127.910000000000
 11
20.468788054124
 21
132.910000000000
  0
LINE
  8
Layer0
  6
CONTINUOUS
 62
8
 10
20.468788054124
 20
127.910000000000
 11
18.968788054124
 21
127.910000000000
  0
LINE
  8
Layer0
  6
CONTINUOUS
 62
8
 10
20.468788054124
 20
93.910000000000
 11
18.968788054124
 21
93.910000000000
  0
LINE
  8
Layer0
  6
CONTINUOUS
 62
8
 10
18.968788054124
 20
93.910000000000
 11
18.968788054124
 21
87.410000000000
  0
LINE
  8
Layer0
  6
CONTINUOUS
 62
8
 10
35.718788054124
 20
134.410000000000
 11
35.718788054124
 21
88.910000000000
  0
LINE
  8
Layer0
  6
CONTINUOUS
 62
8
 10
34.218788054124
 20
88.910000000000
 11
34.218788054124
 21
132.910000000000
  0
LINE
  8
Layer0
  6
CONTINUOUS
 62
8
 10
36.868788054124
 20
87.410000000000
 11
36.868788054124
 21
88.910000000000
  0
LINE
  8
Layer0
  6
CONTINUOUS
 62
8
 10
114.281211945876
 20
134.410000000000
 11
131.031211945876
 21
134.410000000000
  0
LINE
  8
Layer0
  6
CONTINUOUS
 62
8
 10
113.131211945876
 20
87.410000000000
 11
131.031211945876
 21
87.410000000000
  0
LINE
  8
Layer0
  6
CONTINUOUS
 62
8
 10
113.131211945876
 20
88.910000000000
 11
131.031211945876
 21
88.910000000000
  0
LINE
  8
Layer0
  6
CONTINUOUS
 62
8
 10
114.281211945876
 20
132.910000000000
 11
131.031211945876
 21
132.910000000000
  0
LINE
  8
Layer0
  6
CONTINUOUS
 62
8
 10
131.031211945876
 20
134.410000000000
 11
131.031211945876
 21
127.910000000000
  0
LINE
  8
Layer0
  6
CONTINUOUS
 62
8
 10
129.531211945876
 20
93.910000000000
 11
129.531211945876
 21
88.910000000000
  0
LINE
  8
Layer0
  6
CONTINUOUS
 62
8
 10
129.531211945876
 20
127.910000000000
 11
129.531211945876
 21
132.910000000000
  0
LINE
  8
Layer0
  6
CONTINUOUS
 62
8
 10
129.531211945876
 20
127.910000000000
 11
131.031211945876
 21
127.910000000000
  0
LINE
  8
Layer0
  6
CONTINUOUS
 62
8
 10
129.531211945876
 20
93.910000000000
 11
131.031211945876
 21
93.910000000000
  0
LINE
  8
Layer0
  6
CONTINUOUS
 62
8
 10
131.031211945876
 20
93.910000000000
 11
131.031211945876
 21
87.410000000000
  0
LINE
  8
Layer0
  6
CONTINUOUS
 62
8
 10
114.281211945876
 20
134.410000000000
 11
114.281211945876
 21
88.910000000000
  0
LINE
  8
Layer0
  6
CONTINUOUS
 62
8
 10
115.781211945876
 20
88.910000000000
 11
115.781211945876
 21
132.910000000000
  0
LINE
  8
Layer0
  6
CONTINUOUS
 62
8
 10
113.131211945876
 20
87.410000000000
 11
113.131211945876
 21
88.910000000000
  0
LINE
  8
Layer0
  6
DOT
 62
8
 10
25.868788054124
 20
134.410000000000
 11
25.868788054124
 21
132.910000000000
  0
LINE
  8
Layer0
  6
CONTINUOUS
 62
8
 10
35.718788054124
 20
88.910000000000
 11
35.718788054124
 21
87.410000000000
  0
LINE
  8
Layer0
  6
CONTINUOUS
 62
8
 10
124.131211945876
 20
134.410000000000
 11
124.131211945876
 21
132.910000000000
  0
LINE
  8
Layer0
  6
CONTINUOUS
 62
8
 10
78.250000000000
 20
90.560000000000
 11
78.250000000000
 21
87.410000000000
  0
LINE
  8
Layer0
  6
CONTINUOUS
 62
8
 10
61.750000000000
 20
90.560000000000
 11
61.750000000000
 21
87.410000000000
  0
LINE
  8
Layer0
  6
CONTINUOUS
 62
8
 10
75.750000000000
 20
89.810000000000
 11
75.750000000000
 21
87.410000000000
  0
LINE
  8
Layer0
  6
CONTINUOUS
 62
8
 10
64.250000000000
 20
89.810000000000
 11
64.250000000000
 21
87.410000000000
  0
LINE
  8
Layer0
  6
CONTINUOUS
 62
8
 10
72.250000000000
 20
89.810000000000
 11
72.250000000000
 21
87.410000000000
  0
LINE
  8
Layer0
  6
CONTINUOUS
 62
8
 10
67.750000000000
 20
89.810000000000
 11
67.750000000000
 21
87.410000000000
  0
LINE
  8
Layer0
  6
CONTINUOUS
 62
8
 10
78.250000000000
 20
87.410000000000
 11
75.750000000000
 21
87.410000000000
  0
LINE
  8
Layer0
  6
CONTINUOUS
 62
8
 10
71.250000000000
 20
87.410000000000
 11
68.750000000000
 21
87.410000000000
  0
LINE
  8
Layer0
  6
CONTINUOUS
 62
8
 10
64.250000000000
 20
87.410000000000
 11
61.750000000000
 21
87.410000000000
  0
CIRCLE
  8
Layer0
  6
CONTINUOUS
 62
8
 10
70.000000000000
 20
107.410000000000
 40
0.800000000000
  0
CIRCLE
  8
Layer0
  6
CONTINUOUS
 62
8
 10
70.000000000000
 20
114.410000000000
 40
0.800000000000
  0
LINE
  8
Layer0
  6
CONTINUOUS
 62
8
 10
75.000000000000
 20
90.560000000000
 11
73.000000000000
 21
90.560000000000
  0
LINE
  8
Layer0
  6
CONTINUOUS
 62
8
 10
78.250000000000
 20
131.260000000000
 11
78.250000000000
 21
134.410000000000
  0
LINE
  8
Layer0
  6
CONTINUOUS
 62
8
 10
61.750000000000
 20
131.260000000000
 11
61.750000000000
 21
134.410000000000
  0
LINE
  8
Layer0
  6
CONTINUOUS
 62
8
 10
75.750000000000
 20
132.010000000000
 11
75.750000000000
 21
134.410000000000
  0
LINE
  8
Layer0
  6
CONTINUOUS
 62
8
 10
64.250000000000
 20
132.010000000000
 11
64.250000000000
 21
134.410000000000
  0
LINE
  8
Layer0
  6
CONTINUOUS
 62
8
 10
72.250000000000
 20
132.010000000000
 11
72.250000000000
 21
134.410000000000
  0
LINE
  8
Layer0
  6
CONTINUOUS
 62
8
 10
67.750000000000
 20
132.010000000000
 11
67.750000000000
 21
134.410000000000
  0
LINE
  8
Layer0
  6
CONTINUOUS
 62
8
 10
78.250000000000
 20
134.410000000000
 11
75.750000000000
 21
134.410000000000
  0
LINE
  8
Layer0
  6
CONTINUOUS
 62
8
 10
71.250000000000
 20
134.410000000000
 11
68.750000000000
 21
134.410000000000
  0
LINE
  8
Layer0
  6
CONTINUOUS
 62
8
 10
64.250000000000
 20
134.410000000000
 11
61.750000000000
 21
134.410000000000
  0
LINE
  8
Layer0
  6
CONTINUOUS
 62
8
 10
75.000000000000
 20
131.260000000000
 11
73.000000000000
 21
131.260000000000
  0
LINE
  8
Layer0
  6
CONTINUOUS
 62
8
 10
78.250000000000
 20
90.560000000000
 11
78.250000000000
 21
131.260000000000
  0
LINE
  8
Layer0
  6
CONTINUOUS
 62
8
 10
61.750000000000
 20
90.560000000000
 11
61.750000000000
 21
131.260000000000
  0
LINE
  8
Layer0
  6
CONTINUOUS
 62
8
 10
72.817339765989
 20
117.485000000000
 11
67.182660234011
 21
117.485000000000
  0
ARC
  8
Layer0
  6
CONTINUOUS
 62
8
 10
75.593181818182
 20
117.485000000000
 40
1.000000000000
 50
180.000000000000
 51
180.000000000000
  0
ARC
  8
Layer0
  6
CONTINUOUS
 62
8
 10
64.250000000000
 20
117.641818181818
 40
1.000000000000
 50
90.000000000000
 51
90.000000000000
  0
LINE
  8
Layer0
  6
CONTINUOUS
 62
8
 10
66.645049769383
 20
118.757948361047
 11
69.462389535372
 21
121.654278961597
  0
LINE
  8
Layer0
  6
CONTINUOUS
 62
8
 10
73.354950230617
 20
118.757948361047
 11
70.537610464628
 21
121.654278961597
  0
LINE
  8
Layer0
  6
CONTINUOUS
 62
8
 10
72.817339765989
 20
128.985000000000
 11
67.182660234011
 21
128.985000000000
  0
ARC
  8
Layer0
  6
CONTINUOUS
 62
8
 10
64.250000000000
 20
128.828181818182
 40
1.000000000000
 50
270.000000000000
 51
270.000000000000
  0
LINE
  8
Layer0
  6
CONTINUOUS
 62
8
 10
66.645049769383
 20
127.712051638953
 11
69.462389535372
 21
124.815721038403
  0
LINE
  8
Layer0
  6
CONTINUOUS
 62
8
 10
73.354950230617
 20
127.712051638953
 11
70.537610464628
 21
124.815721038403
  0
LINE
  8
Layer0
  6
CONTINUOUS
 62
8
 10
75.750000000000
 20
126.052339765989
 11
75.750000000000
 21
120.417660234011
  0
ARC
  8
Layer0
  6
CONTINUOUS
 62
8
 10
75.750000000000
 20
128.828181818182
 40
1.000000000000
 50
270.000000000000
 51
270.000000000000
  0
LINE
  8
Layer0
  6
CONTINUOUS
 62
8
 10
74.477051638953
 20
119.880049769383
 11
71.580721038403
 21
122.697389535372
  0
LINE
  8
Layer0
  6
CONTINUOUS
 62
8
 10
74.477051638953
 20
126.589950230617
 11
71.580721038403
 21
123.772610464628
  0
LINE
  8
Layer0
  6
CONTINUOUS
 62
8
 10
64.250000000000
 20
126.052339765989
 11
64.250000000000
 21
120.417660234011
  0
LINE
  8
Layer0
  6
CONTINUOUS
 62
8
 10
65.522948361047
 20
119.880049769383
 11
68.419278961597
 21
122.697389535372
  0
LINE
  8
Layer0
  6
CONTINUOUS
 62
8
 10
65.522948361047
 20
126.589950230617
 11
68.419278961597
 21
123.772610464628
  0
ARC
  8
Layer0
  6
CONTINUOUS
 62
8
 10
65.000000000000
 20
126.052339765989
 40
0.750000000000
 50
45.792057092163
 51
180.000000000000
  0
ARC
  8
Layer0
  6
CONTINUOUS
 62
8
 10
65.000000000000
 20
120.417660234011
 40
0.750000000000
 50
180.000000000000
 51
314.207942907837
  0
ARC
  8
Layer0
  6
CONTINUOUS
 62
8
 10
67.182660234011
 20
118.235000000000
 40
0.750000000000
 50
135.792057092163
 51
270.000000000000
  0
ARC
  8
Layer0
  6
CONTINUOUS
 62
8
 10
72.817339765989
 20
118.235000000000
 40
0.750000000000
 50
-90.000000000000
 51
44.207942907837
  0
ARC
  8
Layer0
  6
CONTINUOUS
 62
8
 10
70.000000000000
 20
121.131330600550
 40
0.750000000000
 50
44.207942907837
 51
135.792057092162
  0
ARC
  8
Layer0
  6
CONTINUOUS
 62
8
 10
70.000000000000
 20
125.338669399450
 40
0.750000000000
 50
224.207942907838
 51
315.792057092163
  0
ARC
  8
Layer0
  6
CONTINUOUS
 62
8
 10
67.182660234011
 20
128.235000000000
 40
0.750000000000
 50
90.000000000000
 51
224.207942907837
  0
ARC
  8
Layer0
  6
CONTINUOUS
 62
8
 10
72.817339765989
 20
128.235000000000
 40
0.750000000000
 50
-44.207942907837
 51
90.000000000000
  0
ARC
  8
Layer0
  6
CONTINUOUS
 62
8
 10
75.000000000000
 20
126.052339765989
 40
0.750000000000
 50
0.000000000000
 51
134.207942907838
  0
ARC
  8
Layer0
  6
CONTINUOUS
 62
8
 10
72.103669399450
 20
123.235000000000
 40
0.750000000000
 50
134.207942907837
 51
225.792057092163
  0
ARC
  8
Layer0
  6
CONTINUOUS
 62
8
 10
75.000000000000
 20
120.417660234011
 40
0.750000000000
 50
225.792057092162
 51
360.000000000000
  0
LINE
  8
Layer0
  6
CONTINUOUS
 62
8
 10
72.817339765989
 20
104.335000000000
 11
67.182660234011
 21
104.335000000000
  0
ARC
  8
Layer0
  6
CONTINUOUS
 62
8
 10
75.593181818182
 20
104.335000000000
 40
1.000000000000
 50
180.000000000000
 51
180.000000000000
  0
ARC
  8
Layer0
  6
CONTINUOUS
 62
8
 10
64.250000000000
 20
104.178181818182
 40
1.000000000000
 50
270.000000000000
 51
270.000000000000
  0
LINE
  8
Layer0
  6
CONTINUOUS
 62
8
 10
66.645049769383
 20
103.062051638953
 11
69.462389535372
 21
100.165721038403
  0
LINE
  8
Layer0
  6
CONTINUOUS
 62
8
 10
73.354950230617
 20
103.062051638953
 11
70.537610464628
 21
100.165721038403
  0
LINE
  8
Layer0
  6
CONTINUOUS
 62
8
 10
72.817339765989
 20
92.835000000000
 11
67.182660234011
 21
92.835000000000
  0
ARC
  8
Layer0
  6
CONTINUOUS
 62
8
 10
64.250000000000
 20
92.991818181818
 40
1.000000000000
 50
90.000000000000
 51
90.000000000000
  0
LINE
  8
Layer0
  6
CONTINUOUS
 62
8
 10
66.645049769383
 20
94.107948361047
 11
69.462389535372
 21
97.004278961597
  0
LINE
  8
Layer0
  6
CONTINUOUS
 62
8
 10
73.354950230617
 20
94.107948361047
 11
70.537610464628
 21
97.004278961597
  0
LINE
  8
Layer0
  6
CONTINUOUS
 62
8
 10
75.750000000000
 20
95.767660234011
 11
75.750000000000
 21
101.402339765989
  0
ARC
  8
Layer0
  6
CONTINUOUS
 62
8
 10
75.750000000000
 20
92.991818181818
 40
1.000000000000
 50
90.000000000000
 51
90.000000000000
  0
LINE
  8
Layer0
  6
CONTINUOUS
 62
8
 10
74.477051638953
 20
101.939950230617
 11
71.580721038403
 21
99.122610464628
  0
LINE
  8
Layer0
  6
CONTINUOUS
 62
8
 10
74.477051638953
 20
95.230049769383
 11
71.580721038403
 21
98.047389535372
  0
LINE
  8
Layer0
  6
CONTINUOUS
 62
8
 10
64.250000000000
 20
95.767660234011
 11
64.250000000000
 21
101.402339765989
  0
LINE
  8
Layer0
  6
CONTINUOUS
 62
8
 10
65.522948361047
 20
101.939950230617
 11
68.419278961597
 21
99.122610464628
  0
LINE
  8
Layer0
  6
CONTINUOUS
 62
8
 10
65.522948361047
 20
95.230049769383
 11
68.419278961597
 21
98.047389535372
  0
ARC
  8
Layer0
  6
CONTINUOUS
 62
8
 10
65.000000000000
 20
95.767660234011
 40
0.750000000000
 50
180.000000000000
 51
314.207942907837
  0
ARC
  8
Layer0
  6
CONTINUOUS
 62
8
 10
65.000000000000
 20
101.402339765989
 40
0.750000000000
 50
45.792057092163
 51
180.000000000000
  0
ARC
  8
Layer0
  6
CONTINUOUS
 62
8
 10
67.182660234011
 20
103.585000000000
 40
0.750000000000
 50
90.000000000000
 51
224.207942907837
  0
ARC
  8
Layer0
  6
CONTINUOUS
 62
8
 10
72.817339765989
 20
103.585000000000
 40
0.750000000000
 50
-44.207942907837
 51
90.000000000000
  0
ARC
  8
Layer0
  6
CONTINUOUS
 62
8
 10
70.000000000000
 20
100.688669399450
 40
0.750000000000
 50
224.207942907838
 51
315.792057092163
  0
ARC
  8
Layer0
  6
CONTINUOUS
 62
8
 10
70.000000000000
 20
96.481330600550
 40
0.750000000000
 50
44.207942907837
 51
135.792057092162
  0
ARC
  8
Layer0
  6
CONTINUOUS
 62
8
 10
67.182660234011
 20
93.585000000000
 40
0.750000000000
 50
135.792057092163
 51
270.000000000000
  0
ARC
  8
Layer0
  6
CONTINUOUS
 62
8
 10
72.817339765989
 20
93.585000000000
 40
0.750000000000
 50
-90.000000000000
 51
44.207942907837
  0
ARC
  8
Layer0
  6
CONTINUOUS
 62
8
 10
75.000000000000
 20
95.767660234011
 40
0.750000000000
 50
225.792057092162
 51
360.000000000000
  0
ARC
  8
Layer0
  6
CONTINUOUS
 62
8
 10
72.103669399450
 20
98.585000000000
 40
0.750000000000
 50
134.207942907837
 51
225.792057092163
  0
ARC
  8
Layer0
  6
CONTINUOUS
 62
8
 10
75.000000000000
 20
101.402339765989
 40
0.750000000000
 50
0.000000000000
 51
134.207942907838
  0
LINE
  8
Layer0
  6
CONTINUOUS
 62
8
 10
61.750000000000
 20
134.410000000000
 11
50.950000000000
 21
134.410000000000
  0
LINE
  8
Layer0
  6
CONTINUOUS
 62
8
 10
48.950000000000
 20
132.410000000000
 11
48.950000000000
 21
120.910000000000
  0
LINE
  8
Layer0
  6
CONTINUOUS
 62
8
 10
64.250000000000
 20
134.410000000000
 11
101.031211945876
 21
134.410000000000
  0
LINE
  8
Layer0
  6
CONTINUOUS
 62
8
 10
101.031211945876
 20
134.410000000000
 11
101.031211945876
 21
132.910000000000
  0
LINE
  8
Layer0
  6
CONTINUOUS
 62
8
 10
61.750000000000
 20
132.910000000000
 11
59.200000000000
 21
132.910000000000
  0
LINE
  8
Layer0
  6
CONTINUOUS
 62
8
 10
64.250000000000
 20
132.910000000000
 11
67.750000000000
 21
132.910000000000
  0
LINE
  8
Layer0
  6
CONTINUOUS
 62
8
 10
72.250000000000
 20
132.910000000000
 11
75.750000000000
 21
132.910000000000
  0
LINE
  8
Layer0
  6
CONTINUOUS
 62
8
 10
78.250000000000
 20
132.910000000000
 11
80.800000000000
 21
132.910000000000
  0
LINE
  8
Layer0
  6
CONTINUOUS
 62
8
 10
50.450000000000
 20
132.410000000000
 11
50.450000000000
 21
120.910000000000
  0
LINE
  8
Layer0
  6
CONTINUOUS
 62
8
 10
54.200000000000
 20
132.910000000000
 11
54.200000000000
 21
130.410000000000
  0
LINE
  8
Layer0
  6
CONTINUOUS
 62
8
 10
59.200000000000
 20
132.910000000000
 11
59.200000000000
 21
130.410000000000
  0
LINE
  8
Layer0
  6
CONTINUOUS
 62
8
 10
80.800000000000
 20
132.910000000000
 11
80.800000000000
 21
130.410000000000
  0
LINE
  8
Layer0
  6
CONTINUOUS
 62
8
 10
85.800000000000
 20
132.910000000000
 11
85.800000000000
 21
130.410000000000
  0
CIRCLE
  8
Layer0
  6
CONTINUOUS
 62
8
 10
83.300000000000
 20
130.410000000000
 40
1.000000000000
  0
CIRCLE
  8
Layer0
  6
CONTINUOUS
 62
8
 10
56.700000000000
 20
130.410000000000
 40
1.000000000000
  0
ARC
  8
Layer0
  6
CONTINUOUS
 62
8
 10
56.700000000000
 20
130.410000000000
 40
2.500000000000
 50
-180.000000000000
 51
0.000000000000
  0
ARC
  8
Layer0
  6
CONTINUOUS
 62
8
 10
83.300000000000
 20
130.410000000000
 40
2.500000000000
 50
-180.000000000000
 51
0.000000000000
  0
LINE
  8
Layer0
  6
CONTINUOUS
 62
8
 10
61.750000000000
 20
87.410000000000
 11
50.950000000000
 21
87.410000000000
  0
LINE
  8
Layer0
  6
CONTINUOUS
 62
8
 10
48.950000000000
 20
89.410000000000
 11
48.950000000000
 21
100.910000000000
  0
LINE
  8
Layer0
  6
CONTINUOUS
 62
8
 10
64.250000000000
 20
87.410000000000
 11
99.183624174197
 21
87.410000000000
  0
LINE
  8
Layer0
  6
CONTINUOUS
 62
8
 10
61.750000000000
 20
88.910000000000
 11
59.200000000000
 21
88.910000000000
  0
LINE
  8
Layer0
  6
CONTINUOUS
 62
8
 10
64.250000000000
 20
88.910000000000
 11
67.750000000000
 21
88.910000000000
  0
LINE
  8
Layer0
  6
CONTINUOUS
 62
8
 10
72.250000000000
 20
88.910000000000
 11
75.750000000000
 21
88.910000000000
  0
LINE
  8
Layer0
  6
CONTINUOUS
 62
8
 10
78.250000000000
 20
88.910000000000
 11
80.800000000000
 21
88.910000000000
  0
LINE
  8
Layer0
  6
CONTINUOUS
 62
8
 10
50.450000000000
 20
89.410000000000
 11
50.450000000000
 21
100.910000000000
  0
LINE
  8
Layer0
  6
CONTINUOUS
 62
8
 10
54.200000000000
 20
88.910000000000
 11
54.200000000000
 21
91.410000000000
  0
LINE
  8
Layer0
  6
CONTINUOUS
 62
8
 10
59.200000000000
 20
88.910000000000
 11
59.200000000000
 21
91.410000000000
  0
LINE
  8
Layer0
  6
CONTINUOUS
 62
8
 10
80.800000000000
 20
88.910000000000
 11
80.800000000000
 21
91.410000000000
  0
LINE
  8
Layer0
  6
CONTINUOUS
 62
8
 10
85.800000000000
 20
88.910000000000
 11
85.800000000000
 21
91.410000000000
  0
CIRCLE
  8
Layer0
  6
CONTINUOUS
 62
8
 10
83.300000000000
 20
91.410000000000
 40
1.000000000000
  0
CIRCLE
  8
Layer0
  6
CONTINUOUS
 62
8
 10
56.700000000000
 20
91.410000000000
 40
1.000000000000
  0
ARC
  8
Layer0
  6
CONTINUOUS
 62
8
 10
56.700000000000
 20
91.410000000000
 40
2.500000000000
 50
0.000000000000
 51
180.000000000000
  0
ARC
  8
Layer0
  6
CONTINUOUS
 62
8
 10
83.300000000000
 20
91.410000000000
 40
2.500000000000
 50
0.000000000000
 51
180.000000000000
  0
LINE
  8
Layer0
  6
CONTINUOUS
 62
8
 10
99.183624174197
 20
87.410000000000
 11
99.183624174197
 21
88.910000000000
  0
CIRCLE
  8
Layer0
  6
CONTINUOUS
 62
8
 10
65.000000000000
 20
110.910000000000
 40
0.800000000000
  0
CIRCLE
  8
Layer0
  6
CONTINUOUS
 62
8
 10
75.000000000000
 20
110.910000000000
 40
0.800000000000
  0
LINE
  8
Layer0
  6
CONTINUOUS
 62
8
 10
54.200000000000
 20
88.910000000000
 11
50.950000000000
 21
88.910000000000
  0
LINE
  8
Layer0
  6
CONTINUOUS
 62
8
 10
85.800000000000
 20
88.910000000000
 11
99.183624174197
 21
88.910000000000
  0
LINE
  8
Layer0
  6
CONTINUOUS
 62
8
 10
85.800000000000
 20
132.910000000000
 11
101.031211945876
 21
132.910000000000
  0
LINE
  8
Layer0
  6
CONTINUOUS
 62
8
 10
54.200000000000
 20
132.910000000000
 11
50.950000000000
 21
132.910000000000
  0
ARC
  8
Layer0
  6
CONTINUOUS
 62
8
 10
50.950000000000
 20
89.410000000000
 40
2.000000000000
 50
180.000000000000
 51
270.000000000000
  0
ARC
  8
Layer0
  6
CONTINUOUS
 62
8
 10
50.950000000000
 20
89.410000000000
 40
0.500000000000
 50
180.000000000000
 51
270.000000000000
  0
ARC
  8
Layer0
  6
CONTINUOUS
 62
8
 10
50.950000000000
 20
132.410000000000
 40
2.000000000000
 50
-270.000000000000
 51
-180.000000000000
  0
ARC
  8
Layer0
  6
CONTINUOUS
 62
8
 10
50.950000000000
 20
132.410000000000
 40
0.500000000000
 50
90.000000000000
 51
180.000000000000
  0
LINE
  8
Layer0
  6
CONTINUOUS
 62
8
 10
48.950000000000
 20
120.910000000000
 11
50.450000000000
 21
120.910000000000
  0
LINE
  8
Layer0
  6
CONTINUOUS
 62
8
 10
48.950000000000
 20
100.910000000000
 11
50.450000000000
 21
100.910000000000
  0
ARC
  8
Layer0
  6
CONTINUOUS
 62
8
 10
67.896330600550
 20
98.585000000000
 40
0.750000000000
 50
-45.792057092162
 51
45.792057092162
  0
ARC
  8
Layer0
  6
CONTINUOUS
 62
8
 10
67.896330600550
 20
123.235000000000
 40
0.750000000000
 50
-45.792057092162
 51
45.792057092162
  0
LINE
  8
Layer0
  6
CONTINUOUS
 62
8
 10
67.000000000000
 20
90.560000000000
 11
65.000000000000
 21
90.560000000000
  0
LINE
  8
Layer0
  6
CONTINUOUS
 62
8
 10
67.000000000000
 20
131.260000000000
 11
65.000000000000
 21
131.260000000000
  0
LINE
  8
Layer0
  6
CONTINUOUS
 62
8
 10
54.200000000000
 20
132.910000000000
 11
59.200000000000
 21
132.910000000000
  0
LINE
  8
Layer0
  6
CONTINUOUS
 62
8
 10
80.800000000000
 20
132.910000000000
 11
85.800000000000
 21
132.910000000000
  0
LINE
  8
Layer0
  6
CONTINUOUS
 62
8
 10
85.800000000000
 20
88.910000000000
 11
80.800000000000
 21
88.910000000000
  0
LINE
  8
Layer0
  6
CONTINUOUS
 62
8
 10
59.200000000000
 20
88.910000000000
 11
54.200000000000
 21
88.910000000000
  0
LINE
  8
Layer0
  6
CONTINUOUS
 62
8
 10
186.362423891753
 20
88.910000000000
 11
164.762423891753
 21
88.910000000000
  0
LINE
  8
Layer0
  6
CONTINUOUS
 62
8
 10
186.362423891753
 20
132.910000000000
 11
164.762423891753
 21
132.910000000000
  0
ARC
  8
Layer0
  6
CONTINUOUS
 62
8
 10
65.000000000000
 20
89.810000000000
 40
0.750000000000
 50
90.000000000000
 51
180.000000000000
  0
ARC
  8
Layer0
  6
CONTINUOUS
 62
8
 10
67.000000000000
 20
89.810000000000
 40
0.750000000000
 50
0.000000000000
 51
90.000000000000
  0
ARC
  8
Layer0
  6
CONTINUOUS
 62
8
 10
73.000000000000
 20
89.810000000000
 40
0.750000000000
 50
90.000000000000
 51
180.000000000000
  0
ARC
  8
Layer0
  6
CONTINUOUS
 62
8
 10
75.000000000000
 20
89.810000000000
 40
0.750000000000
 50
0.000000000000
 51
90.000000000000
  0
ARC
  8
Layer0
  6
CONTINUOUS
 62
8
 10
65.000000000000
 20
132.010000000000
 40
0.750000000000
 50
180.000000000000
 51
270.000000000000
  0
ARC
  8
Layer0
  6
CONTINUOUS
 62
8
 10
67.000000000000
 20
132.010000000000
 40
0.750000000000
 50
-90.000000000000
 51
0.000000000000
  0
ARC
  8
Layer0
  6
CONTINUOUS
 62
8
 10
73.000000000000
 20
132.010000000000
 40
0.750000000000
 50
180.000000000000
 51
270.000000000000
  0
ARC
  8
Layer0
  6
CONTINUOUS
 62
8
 10
75.000000000000
 20
132.010000000000
 40
0.750000000000
 50
-90.000000000000
 51
0.000000000000
  0
ARC
  8
Layer0
  6
CONTINUOUS
 62
8
 10
180.562423891753
 20
132.010000000000
 40
0.750000000000
 50
-90.000000000000
 51
0.000000000000
  0
ARC
  8
Layer0
  6
CONTINUOUS
 62
8
 10
178.562423891753
 20
132.010000000000
 40
0.750000000000
 50
180.000000000000
 51
270.000000000000
  0
ARC
  8
Layer0
  6
CONTINUOUS
 62
8
 10
172.562423891753
 20
132.010000000000
 40
0.750000000000
 50
-90.000000000000
 51
0.000000000000
  0
ARC
  8
Layer0
  6
CONTINUOUS
 62
8
 10
170.562423891753
 20
132.010000000000
 40
0.750000000000
 50
180.000000000000
 51
270.000000000000
  0
ARC
  8
Layer0
  6
CONTINUOUS
 62
8
 10
180.562423891753
 20
89.810000000000
 40
0.750000000000
 50
0.000000000000
 51
90.000000000000
  0
ARC
  8
Layer0
  6
CONTINUOUS
 62
8
 10
178.562423891753
 20
89.810000000000
 40
0.750000000000
 50
90.000000000000
 51
180.000000000000
  0
ARC
  8
Layer0
  6
CONTINUOUS
 62
8
 10
172.562423891753
 20
89.810000000000
 40
0.750000000000
 50
0.000000000000
 51
90.000000000000
  0
ARC
  8
Layer0
  6
CONTINUOUS
 62
8
 10
170.562423891753
 20
89.810000000000
 40
0.750000000000
 50
90.000000000000
 51
180.000000000000
  0
ARC
  8
Layer0
  6
CONTINUOUS
 62
8
 10
70.000000000000
 20
156.820000000000
 40
4.000000000000
 50
-180.000000000000
 51
0.000000000000
  0
ARC
  8
Layer0
  6
CONTINUOUS
 62
8
 10
60.750000000000
 20
156.820000000000
 40
6.250000000000
 50
32.859880378889
 51
90.000000000000
  0
LINE
  8
Layer0
  6
CONTINUOUS
 62
8
 10
66.000000000000
 20
156.820000000000
 11
66.000000000000
 21
160.211164991563
  0
LINE
  8
Layer0
  6
CONTINUOUS
 62
8
 10
74.000000000000
 20
156.820000000000
 11
74.000000000000
 21
160.211164991563
  0
CIRCLE
  8
Layer0
  6
CONTINUOUS
 62
8
 10
70.000000000000
 20
110.910000000000
 40
2.100000000000
  0
ENDSEC
  0
EOF
