  0
SECTION
  2
HEADER
  9
$ACADVER
  1
AC1006
  0
ENDSEC
  0
SECTION
  2
TABLES
  0
TABLE
  2
LTYPE
 70
    9
  0
LTYPE
  2
CONTINUOUS
 70
   64
  3
SOLID
 72
   65
 73
    0
 40
0.0
  0
LTYPE
  2
DASHED
 70
   64
  3
_ _ _ _ _ _ _ _ _ _ _ _ _ _ _ _ _ _ _ _ _ _ _
 72
   65
 73
    2
 40
4.0
 49
3.0
 49
-1.0
  0
LTYPE
  2
DOT
 70
   64
  3
...............................................
 72
   65
 73
    2
 40
2.0
 49
1.0
 49
-1.0
  0
LTYPE
  2
DASHDOT
 70
   64
  3
____ _ ____ _ ____ _ ____ _ ____ _ ____ _ ____
 72
   65
 73
    4
 40
8.0
 49
5.0
 49
-1.0
 49
1.0
 49
-1.0
  0
LTYPE
  2
DIVIDE
 70
   64
  3
_____ _ _ _____ _ _ _____ _ _ _____ _ _ ____
 72
   65
 73
    6
 40
10.0
 49
5.0
 49
-1.0
 49
1.0
 49
-1.0
 49
1.0
 49
-1.0
  0
ENDTAB
  0
TABLE
  2
LAYER
 70
    2
  0
LAYER
  2
NULL
 70
   64
 62
    7
  6
CONTINUOUS
  0
LAYER
  2
Layer0
 70
   64
 62
    7
  6
CONTINUOUS
  0
LAYER
  2
Layer4
 70
   64
 62
    7
  6
CONTINUOUS
  0
LAYER
  2
Layer5
 70
   64
 62
    7
  6
CONTINUOUS
  0
LAYER
  2
Layer3
 70
   64
 62
    7
  6
CONTINUOUS
  0
LAYER
  2
Layer4
 70
   64
 62
    7
  6
CONTINUOUS
  0
ENDTAB
  0
ENDSEC
  0
SECTION
  2
ENTITIES
  0
LINE
  8
Layer0
  6
CONTINUOUS
 62
8
 10
54.166763168135
 20
-21.211248252169
 11
54.232700231038
 21
-21.188378085918
  0
LINE
  8
Layer0
  6
CONTINUOUS
 62
5
 10
11.500000000000
 20
56.376848257808
 11
11.650000000000
 21
56.314716223452
  0
LINE
  8
Layer0
  6
CONTINUOUS
 62
5
 10
62.500000000000
 20
56.376848257808
 11
62.350000000000
 21
56.314716223452
  0
LINE
  8
Layer0
  6
CONTINUOUS
 62
5
 10
10.287619625350
 20
-6.805464513132
 11
10.257166730682
 21
-6.742668319179
  0
LINE
  8
Layer0
  6
CONTINUOUS
 62
8
 10
19.833236831865
 20
-21.211248252169
 11
19.767299768962
 21
-21.188378085918
  0
LINE
  8
Layer0
  6
CONTINUOUS
 62
5
 10
11.650000000000
 20
0.000000000000
 11
62.350000000000
 21
0.000000000000
  0
LINE
  8
Layer0
  6
CONTINUOUS
 62
5
 10
74.000000000000
 20
10.794628123294
 11
73.994364720786
 21
10.148889085115
  0
LINE
  8
Layer0
  6
CONTINUOUS
 62
5
 10
73.994364720786
 20
10.148889085115
 11
73.977460599707
 21
9.503346745302
  0
LINE
  8
Layer0
  6
CONTINUOUS
 62
5
 10
73.977460599707
 20
9.503346745302
 11
73.949292785919
 21
8.858197742305
  0
LINE
  8
Layer0
  6
CONTINUOUS
 62
5
 10
73.949292785919
 20
8.858197742305
 11
73.909869859613
 21
8.213638594762
  0
LINE
  8
Layer0
  6
CONTINUOUS
 62
5
 10
73.909869859613
 20
8.213638594762
 11
73.859203829395
 21
7.569865641631
  0
LINE
  8
Layer0
  6
CONTINUOUS
 62
5
 10
73.859203829395
 20
7.569865641631
 11
73.797310128626
 21
6.927074982391
  0
LINE
  8
Layer0
  6
CONTINUOUS
 62
5
 10
73.797310128626
 20
6.927074982391
 11
73.724207610729
 21
6.285462417304
  0
LINE
  8
Layer0
  6
CONTINUOUS
 62
5
 10
73.724207610729
 20
6.285462417304
 11
73.639918543438
 21
5.645223387772
  0
LINE
  8
Layer0
  6
CONTINUOUS
 62
5
 10
73.639918543438
 20
5.645223387772
 11
73.544468602020
 21
5.006552916806
  0
LINE
  8
Layer0
  6
CONTINUOUS
 62
5
 10
73.544468602020
 20
5.006552916806
 11
73.437886861452
 21
4.369645549618
  0
LINE
  8
Layer0
  6
CONTINUOUS
 62
5
 10
73.437886861452
 20
4.369645549618
 11
73.320205787564
 21
3.734695294362
  0
LINE
  8
Layer0
  6
CONTINUOUS
 62
5
 10
73.320205787564
 20
3.734695294362
 11
73.191461227151
 21
3.101895563037
  0
LINE
  8
Layer0
  6
CONTINUOUS
 62
5
 10
73.191461227151
 20
3.101895563037
 11
73.051692397054
 21
2.471439112571
  0
LINE
  8
Layer0
  6
CONTINUOUS
 62
5
 10
73.051692397054
 20
2.471439112571
 11
72.900941872212
 21
1.843517986107
  0
LINE
  8
Layer0
  6
CONTINUOUS
 62
5
 10
72.900941872212
 20
1.843517986107
 11
72.739255572696
 21
1.218323454501
  0
LINE
  8
Layer0
  6
CONTINUOUS
 62
5
 10
72.739255572696
 20
1.218323454501
 11
72.566682749718
 21
0.596045958065
  0
LINE
  8
Layer0
  6
CONTINUOUS
 62
5
 10
72.566682749718
 20
0.596045958065
 11
72.390125893321
 21
0.000000000000
  0
LINE
  8
Layer0
  6
CONTINUOUS
 62
5
 10
1.609874106679
 20
-0.000000000000
 11
1.433317250282
 21
0.596045958065
  0
LINE
  8
Layer0
  6
CONTINUOUS
 62
5
 10
1.433317250282
 20
0.596045958065
 11
1.260744427305
 21
1.218323454501
  0
LINE
  8
Layer0
  6
CONTINUOUS
 62
5
 10
1.260744427305
 20
1.218323454501
 11
1.099058127788
 21
1.843517986106
  0
LINE
  8
Layer0
  6
CONTINUOUS
 62
5
 10
1.099058127788
 20
1.843517986106
 11
0.948307602946
 21
2.471439112571
  0
LINE
  8
Layer0
  6
CONTINUOUS
 62
5
 10
0.948307602946
 20
2.471439112571
 11
0.808538772849
 21
3.101895563037
  0
LINE
  8
Layer0
  6
CONTINUOUS
 62
5
 10
0.808538772849
 20
3.101895563037
 11
0.679794212436
 21
3.734695294362
  0
LINE
  8
Layer0
  6
CONTINUOUS
 62
5
 10
0.679794212436
 20
3.734695294362
 11
0.562113138548
 21
4.369645549618
  0
LINE
  8
Layer0
  6
CONTINUOUS
 62
5
 10
0.562113138548
 20
4.369645549618
 11
0.455531397980
 21
5.006552916806
  0
LINE
  8
Layer0
  6
CONTINUOUS
 62
5
 10
0.455531397980
 20
5.006552916806
 11
0.360081456562
 21
5.645223387772
  0
LINE
  8
Layer0
  6
CONTINUOUS
 62
5
 10
0.360081456562
 20
5.645223387772
 11
0.275792389271
 21
6.285462417304
  0
LINE
  8
Layer0
  6
CONTINUOUS
 62
5
 10
0.275792389271
 20
6.285462417304
 11
0.202689871374
 21
6.927074982391
  0
LINE
  8
Layer0
  6
CONTINUOUS
 62
5
 10
0.202689871374
 20
6.927074982391
 11
0.140796170605
 21
7.569865641631
  0
LINE
  8
Layer0
  6
CONTINUOUS
 62
5
 10
0.140796170605
 20
7.569865641631
 11
0.090130140387
 21
8.213638594761
  0
LINE
  8
Layer0
  6
CONTINUOUS
 62
5
 10
0.090130140387
 20
8.213638594761
 11
0.050707214081
 21
8.858197742305
  0
LINE
  8
Layer0
  6
CONTINUOUS
 62
5
 10
0.050707214081
 20
8.858197742305
 11
0.022539400293
 21
9.503346745301
  0
LINE
  8
Layer0
  6
CONTINUOUS
 62
5
 10
0.022539400293
 20
9.503346745301
 11
0.005635279214
 21
10.148889085114
  0
LINE
  8
Layer0
  6
CONTINUOUS
 62
5
 10
0.005635279214
 20
10.148889085114
 11
0.000000000000
 21
10.794628123294
  0
LINE
  8
Layer0
  6
CONTINUOUS
 62
5
 10
0.000000000000
 20
10.794628123294
 11
0.000007562155
 21
10.795494660448
  0
LINE
  8
Layer0
  6
CONTINUOUS
 62
5
 10
73.999992437845
 20
10.795494660448
 11
74.000000000000
 21
10.794628123294
  0
LINE
  8
Layer0
  6
CONTINUOUS
 62
5
 10
1.609432760184
 20
0.000000000000
 11
72.390125893321
 21
0.000000000000
  0
LINE
  8
Layer0
  6
CONTINUOUS
 62
5
 10
11.500000000000
 20
15.558947495391
 11
11.650000000000
 21
15.621079529747
  0
LINE
  8
Layer0
  6
CONTINUOUS
 62
5
 10
62.500000000000
 20
15.558947495391
 11
62.350000000000
 21
15.621079529747
  0
LINE
  8
Layer0
  6
CONTINUOUS
 62
5
 10
74.000000000000
 20
61.140307334882
 11
73.994364720786
 21
61.829677389155
  0
LINE
  8
Layer0
  6
CONTINUOUS
 62
5
 10
73.994364720786
 20
61.829677389155
 11
73.977460599707
 21
62.518837454631
  0
LINE
  8
Layer0
  6
CONTINUOUS
 62
5
 10
73.977460599707
 20
62.518837454631
 11
73.949292785919
 21
63.207577606478
  0
LINE
  8
Layer0
  6
CONTINUOUS
 62
5
 10
73.949292785919
 20
63.207577606478
 11
73.909869859613
 21
63.895688047775
  0
LINE
  8
Layer0
  6
CONTINUOUS
 62
5
 10
73.909869859613
 20
63.895688047775
 11
73.859203829395
 21
64.582959173414
  0
LINE
  8
Layer0
  6
CONTINUOUS
 62
5
 10
73.859203829395
 20
64.582959173414
 11
73.797310128626
 21
65.269181633954
  0
LINE
  8
Layer0
  6
CONTINUOUS
 62
5
 10
73.797310128626
 20
65.269181633954
 11
73.724207610729
 21
65.954146399385
  0
LINE
  8
Layer0
  6
CONTINUOUS
 62
5
 10
73.724207610729
 20
65.954146399385
 11
73.639918543438
 21
66.637644822805
  0
LINE
  8
Layer0
  6
CONTINUOUS
 62
5
 10
73.639918543438
 20
66.637644822805
 11
73.544468602020
 21
67.319468703971
  0
LINE
  8
Layer0
  6
CONTINUOUS
 62
5
 10
73.544468602020
 20
67.319468703971
 11
73.437886861452
 21
67.999410352726
  0
LINE
  8
Layer0
  6
CONTINUOUS
 62
5
 10
73.437886861452
 20
67.999410352726
 11
73.320205787564
 21
68.677262652256
  0
LINE
  8
Layer0
  6
CONTINUOUS
 62
5
 10
73.320205787564
 20
68.677262652256
 11
73.191461227151
 21
69.352819122183
  0
LINE
  8
Layer0
  6
CONTINUOUS
 62
5
 10
73.191461227151
 20
69.352819122183
 11
73.051692397054
 21
70.025873981465
  0
LINE
  8
Layer0
  6
CONTINUOUS
 62
5
 10
73.051692397054
 20
70.025873981465
 11
72.900941872212
 21
70.696222211069
  0
LINE
  8
Layer0
  6
CONTINUOUS
 62
5
 10
72.900941872212
 20
70.696222211069
 11
72.739255572696
 21
71.363659616432
  0
LINE
  8
Layer0
  6
CONTINUOUS
 62
5
 10
72.739255572696
 20
71.363659616432
 11
72.566682749718
 21
72.027982889653
  0
LINE
  8
Layer0
  6
CONTINUOUS
 62
5
 10
72.566682749718
 20
72.027982889653
 11
72.383275970632
 21
72.688989671430
  0
LINE
  8
Layer0
  6
CONTINUOUS
 62
5
 10
72.383275970632
 20
72.688989671430
 11
72.189091102921
 21
73.346478612692
  0
LINE
  8
Layer0
  6
CONTINUOUS
 62
5
 10
72.189091102921
 20
73.346478612692
 11
71.984187297175
 21
74.000249435940
  0
LINE
  8
Layer0
  6
CONTINUOUS
 62
5
 10
71.984187297175
 20
74.000249435940
 11
71.768626969079
 21
74.650102996246
  0
LINE
  8
Layer0
  6
CONTINUOUS
 62
5
 10
71.768626969079
 20
74.650102996246
 11
71.542475780396
 21
75.295841341921
  0
LINE
  8
Layer0
  6
CONTINUOUS
 62
5
 10
71.542475780396
 20
75.295841341921
 11
71.305802618971
 21
75.937267774811
  0
LINE
  8
Layer0
  6
CONTINUOUS
 62
5
 10
71.305802618971
 20
75.937267774811
 11
71.058679577740
 21
76.574186910208
  0
LINE
  8
Layer0
  6
CONTINUOUS
 62
5
 10
71.058679577740
 20
76.574186910208
 11
70.801181932776
 21
77.206404736376
  0
LINE
  8
Layer0
  6
CONTINUOUS
 62
5
 10
70.801181932776
 20
77.206404736376
 11
70.533388120356
 21
77.833728673640
  0
LINE
  8
Layer0
  6
CONTINUOUS
 62
5
 10
70.533388120356
 20
77.833728673640
 11
70.255379713069
 21
78.455967633051
  0
LINE
  8
Layer0
  6
CONTINUOUS
 62
5
 10
70.255379713069
 20
78.455967633051
 11
69.967241394970
 21
79.072932074594
  0
LINE
  8
Layer0
  6
CONTINUOUS
 62
5
 10
69.967241394970
 20
79.072932074594
 11
69.669060935780
 21
79.684434064925
  0
LINE
  8
Layer0
  6
CONTINUOUS
 62
5
 10
69.669060935780
 20
79.684434064925
 11
69.360929164158
 21
80.290287334612
  0
LINE
  8
Layer0
  6
CONTINUOUS
 62
5
 10
69.360929164158
 20
80.290287334612
 11
69.042939940024
 21
80.890307334882
  0
LINE
  8
Layer0
  6
CONTINUOUS
 62
5
 10
69.042939940024
 20
80.890307334882
 11
68.715190125978
 21
81.484311293829
  0
LINE
  8
Layer0
  6
CONTINUOUS
 62
5
 10
68.715190125978
 20
81.484311293829
 11
68.377779557788
 21
82.072118272094
  0
LINE
  8
Layer0
  6
CONTINUOUS
 62
5
 10
68.377779557788
 20
82.072118272094
 11
68.030811013981
 21
82.653549217976
  0
LINE
  8
Layer0
  6
CONTINUOUS
 62
5
 10
68.030811013981
 20
82.653549217976
 11
67.674390184537
 21
83.228427021977
  0
LINE
  8
Layer0
  6
CONTINUOUS
 62
5
 10
67.674390184537
 20
83.228427021977
 11
67.308625638693
 21
83.796576570748
  0
LINE
  8
Layer0
  6
CONTINUOUS
 62
5
 10
67.308625638693
 20
83.796576570748
 11
66.933628791873
 21
84.357824800435
  0
LINE
  8
Layer0
  6
CONTINUOUS
 62
5
 10
66.933628791873
 20
84.357824800435
 11
66.549513871750
 21
84.912000749388
  0
LINE
  8
Layer0
  6
CONTINUOUS
 62
5
 10
66.549513871750
 20
84.912000749388
 11
66.156397883449
 21
85.458935610246
  0
LINE
  8
Layer0
  6
CONTINUOUS
 62
5
 10
66.156397883449
 20
85.458935610246
 11
65.754400573908
 21
85.998462781351
  0
LINE
  8
Layer0
  6
CONTINUOUS
 62
5
 10
65.754400573908
 20
85.998462781351
 11
65.343644395402
 21
86.530417917500
  0
LINE
  8
Layer0
  6
CONTINUOUS
 62
5
 10
65.343644395402
 20
86.530417917500
 11
64.924254468243
 21
87.054638980007
  0
LINE
  8
Layer0
  6
CONTINUOUS
 62
5
 10
64.924254468243
 20
87.054638980007
 11
64.496358542664
 21
87.570966286057
  0
LINE
  8
Layer0
  6
CONTINUOUS
 62
5
 10
64.496358542664
 20
87.570966286057
 11
64.060086959909
 21
88.079242557351
  0
LINE
  8
Layer0
  6
CONTINUOUS
 62
5
 10
64.060086959909
 20
88.079242557351
 11
63.615572612530
 21
88.579312968012
  0
LINE
  8
Layer0
  6
CONTINUOUS
 62
5
 10
63.615572612530
 20
88.579312968012
 11
63.162950903902
 21
89.071025191751
  0
LINE
  8
Layer0
  6
CONTINUOUS
 62
5
 10
63.162950903902
 20
89.071025191751
 11
62.702359706983
 21
89.554229448259
  0
LINE
  8
Layer0
  6
CONTINUOUS
 62
5
 10
62.702359706983
 20
89.554229448259
 11
62.233939322312
 21
90.028778548839
  0
LINE
  8
Layer0
  6
CONTINUOUS
 62
5
 10
62.233939322312
 20
90.028778548839
 11
61.757832435278
 21
90.494527941239
  0
LINE
  8
Layer0
  6
CONTINUOUS
 62
5
 10
61.757832435278
 20
90.494527941239
 11
61.274184072649
 21
90.951335753682
  0
LINE
  8
Layer0
  6
CONTINUOUS
 62
5
 10
61.274184072649
 20
90.951335753682
 11
60.783141558402
 21
91.399062838082
  0
LINE
  8
Layer0
  6
CONTINUOUS
 62
5
 10
60.783141558402
 20
91.399062838082
 11
60.284854468844
 21
91.837572812432
  0
LINE
  8
Layer0
  6
CONTINUOUS
 62
5
 10
60.284854468844
 20
91.837572812432
 11
59.779474587049
 21
92.266732102348
  0
LINE
  8
Layer0
  6
CONTINUOUS
 62
5
 10
59.779474587049
 20
92.266732102348
 11
59.267155856626
 21
92.686409981750
  0
LINE
  8
Layer0
  6
CONTINUOUS
 62
5
 10
59.267155856626
 20
92.686409981750
 11
58.748054334821
 21
93.096478612692
  0
LINE
  8
Layer0
  6
CONTINUOUS
 62
5
 10
58.748054334821
 20
93.096478612692
 11
58.222328144989
 21
93.496813084297
  0
LINE
  8
Layer0
  6
CONTINUOUS
 62
5
 10
58.222328144989
 20
93.496813084297
 11
57.690137428418
 21
93.887291450806
  0
LINE
  8
Layer0
  6
CONTINUOUS
 62
5
 10
57.690137428418
 20
93.887291450806
 11
57.151644295556
 21
94.267794768726
  0
LINE
  8
Layer0
  6
CONTINUOUS
 62
5
 10
57.151644295556
 20
94.267794768726
 11
56.607012776629
 21
94.638207133061
  0
LINE
  8
Layer0
  6
CONTINUOUS
 62
5
 10
56.607012776629
 20
94.638207133061
 11
56.056408771672
 21
94.998415712615
  0
LINE
  8
Layer0
  6
CONTINUOUS
 62
5
 10
56.056408771672
 20
94.998415712615
 11
55.500000000000
 21
95.348310784367
  0
LINE
  8
Layer0
  6
CONTINUOUS
 62
5
 10
55.500000000000
 20
95.348310784367
 11
54.937955949114
 21
95.687785766888
  0
LINE
  8
Layer0
  6
CONTINUOUS
 62
5
 10
54.937955949114
 20
95.687785766888
 11
54.370447823078
 21
96.016737252810
  0
LINE
  8
Layer0
  6
CONTINUOUS
 62
5
 10
54.370447823078
 20
96.016737252810
 11
53.797648490363
 21
96.335065040323
  0
LINE
  8
Layer0
  6
CONTINUOUS
 62
5
 10
53.797648490363
 20
96.335065040323
 11
53.219732431196
 21
96.642672163699
  0
LINE
  8
Layer0
  6
CONTINUOUS
 62
5
 10
53.219732431196
 20
96.642672163699
 11
52.636875684406
 21
96.939464922830
  0
LINE
  8
Layer0
  6
CONTINUOUS
 62
5
 10
52.636875684406
 20
96.939464922830
 11
52.049255793805
 21
97.225352911765
  0
LINE
  8
Layer0
  6
CONTINUOUS
 62
5
 10
52.049255793805
 20
97.225352911765
 11
51.457051754103
 21
97.500249046253
  0
LINE
  8
Layer0
  6
CONTINUOUS
 62
5
 10
51.457051754103
 20
97.500249046253
 11
50.860443956389
 21
97.764069590270
  0
LINE
  8
Layer0
  6
CONTINUOUS
 62
5
 10
50.860443956389
 20
97.764069590270
 11
50.259614133176
 21
98.016734181521
  0
LINE
  8
Layer0
  6
CONTINUOUS
 62
5
 10
50.259614133176
 20
98.016734181521
 11
49.654745303050
 21
98.258165855925
  0
LINE
  8
Layer0
  6
CONTINUOUS
 62
5
 10
49.654745303050
 20
98.258165855925
 11
49.046021714915
 21
98.488291071055
  0
LINE
  8
Layer0
  6
CONTINUOUS
 62
5
 10
49.046021714915
 20
98.488291071055
 11
48.433628791873
 21
98.707039728541
  0
LINE
  8
Layer0
  6
CONTINUOUS
 62
5
 10
48.433628791873
 20
98.707039728541
 11
47.817753074741
 21
98.914345195422
  0
LINE
  8
Layer0
  6
CONTINUOUS
 62
5
 10
47.817753074741
 20
98.914345195422
 11
47.546888931886
 21
99.000000000000
  0
LINE
  8
Layer0
  6
CONTINUOUS
 62
5
 10
26.453111068114
 20
99.000000000000
 11
26.182246925259
 21
98.914345195422
  0
LINE
  8
Layer0
  6
CONTINUOUS
 62
5
 10
26.182246925259
 20
98.914345195422
 11
25.566371208127
 21
98.707039728541
  0
LINE
  8
Layer0
  6
CONTINUOUS
 62
5
 10
25.566371208127
 20
98.707039728541
 11
24.953978285085
 21
98.488291071055
  0
LINE
  8
Layer0
  6
CONTINUOUS
 62
5
 10
24.953978285085
 20
98.488291071055
 11
24.345254696950
 21
98.258165855925
  0
LINE
  8
Layer0
  6
CONTINUOUS
 62
5
 10
24.345254696950
 20
98.258165855925
 11
23.740385866824
 21
98.016734181521
  0
LINE
  8
Layer0
  6
CONTINUOUS
 62
5
 10
23.740385866824
 20
98.016734181521
 11
23.139556043611
 21
97.764069590270
  0
LINE
  8
Layer0
  6
CONTINUOUS
 62
5
 10
23.139556043611
 20
97.764069590270
 11
22.542948245897
 21
97.500249046253
  0
LINE
  8
Layer0
  6
CONTINUOUS
 62
5
 10
22.542948245897
 20
97.500249046253
 11
21.950744206195
 21
97.225352911765
  0
LINE
  8
Layer0
  6
CONTINUOUS
 62
5
 10
21.950744206195
 20
97.225352911765
 11
21.363124315594
 21
96.939464922830
  0
LINE
  8
Layer0
  6
CONTINUOUS
 62
5
 10
21.363124315594
 20
96.939464922830
 11
20.780267568804
 21
96.642672163699
  0
LINE
  8
Layer0
  6
CONTINUOUS
 62
5
 10
20.780267568804
 20
96.642672163699
 11
20.202351509637
 21
96.335065040322
  0
LINE
  8
Layer0
  6
CONTINUOUS
 62
5
 10
20.202351509637
 20
96.335065040322
 11
19.629552176922
 21
96.016737252810
  0
LINE
  8
Layer0
  6
CONTINUOUS
 62
5
 10
19.629552176922
 20
96.016737252810
 11
19.062044050885
 21
95.687785766888
  0
LINE
  8
Layer0
  6
CONTINUOUS
 62
5
 10
19.062044050885
 20
95.687785766888
 11
18.500000000000
 21
95.348310784367
  0
LINE
  8
Layer0
  6
CONTINUOUS
 62
5
 10
18.500000000000
 20
95.348310784367
 11
17.943591228328
 21
94.998415712615
  0
LINE
  8
Layer0
  6
CONTINUOUS
 62
5
 10
17.943591228328
 20
94.998415712615
 11
17.392987223371
 21
94.638207133061
  0
LINE
  8
Layer0
  6
CONTINUOUS
 62
5
 10
17.392987223371
 20
94.638207133061
 11
16.848355704444
 21
94.267794768726
  0
LINE
  8
Layer0
  6
CONTINUOUS
 62
5
 10
16.848355704444
 20
94.267794768726
 11
16.309862571582
 21
93.887291450806
  0
LINE
  8
Layer0
  6
CONTINUOUS
 62
5
 10
16.309862571582
 20
93.887291450806
 11
15.777671855011
 21
93.496813084297
  0
LINE
  8
Layer0
  6
CONTINUOUS
 62
5
 10
15.777671855011
 20
93.496813084297
 11
15.251945665178
 21
93.096478612692
  0
LINE
  8
Layer0
  6
CONTINUOUS
 62
5
 10
15.251945665178
 20
93.096478612692
 11
14.732844143374
 21
92.686409981750
  0
LINE
  8
Layer0
  6
CONTINUOUS
 62
5
 10
14.732844143374
 20
92.686409981750
 11
14.220525412951
 21
92.266732102348
  0
LINE
  8
Layer0
  6
CONTINUOUS
 62
5
 10
14.220525412951
 20
92.266732102348
 11
13.715145531156
 21
91.837572812432
  0
LINE
  8
Layer0
  6
CONTINUOUS
 62
5
 10
13.715145531156
 20
91.837572812432
 11
13.216858441598
 21
91.399062838082
  0
LINE
  8
Layer0
  6
CONTINUOUS
 62
5
 10
13.216858441598
 20
91.399062838082
 11
12.725815927351
 21
90.951335753682
  0
LINE
  8
Layer0
  6
CONTINUOUS
 62
5
 10
12.725815927351
 20
90.951335753682
 11
12.242167564722
 21
90.494527941239
  0
LINE
  8
Layer0
  6
CONTINUOUS
 62
5
 10
12.242167564722
 20
90.494527941239
 11
11.766060677688
 21
90.028778548839
  0
LINE
  8
Layer0
  6
CONTINUOUS
 62
5
 10
11.766060677688
 20
90.028778548839
 11
11.297640293017
 21
89.554229448259
  0
LINE
  8
Layer0
  6
CONTINUOUS
 62
5
 10
11.297640293017
 20
89.554229448259
 11
10.837049096098
 21
89.071025191751
  0
LINE
  8
Layer0
  6
CONTINUOUS
 62
5
 10
10.837049096098
 20
89.071025191751
 11
10.384427387470
 21
88.579312968012
  0
LINE
  8
Layer0
  6
CONTINUOUS
 62
5
 10
10.384427387470
 20
88.579312968012
 11
9.939913040091
 21
88.079242557351
  0
LINE
  8
Layer0
  6
CONTINUOUS
 62
5
 10
9.939913040091
 20
88.079242557351
 11
9.503641457336
 21
87.570966286057
  0
LINE
  8
Layer0
  6
CONTINUOUS
 62
5
 10
9.503641457336
 20
87.570966286057
 11
9.075745531758
 21
87.054638980007
  0
LINE
  8
Layer0
  6
CONTINUOUS
 62
5
 10
9.075745531758
 20
87.054638980007
 11
8.656355604598
 21
86.530417917500
  0
LINE
  8
Layer0
  6
CONTINUOUS
 62
5
 10
8.656355604598
 20
86.530417917500
 11
8.245599426092
 21
85.998462781351
  0
LINE
  8
Layer0
  6
CONTINUOUS
 62
5
 10
8.245599426092
 20
85.998462781351
 11
7.843602116551
 21
85.458935610246
  0
LINE
  8
Layer0
  6
CONTINUOUS
 62
5
 10
7.843602116551
 20
85.458935610246
 11
7.450486128250
 21
84.912000749388
  0
LINE
  8
Layer0
  6
CONTINUOUS
 62
5
 10
7.450486128250
 20
84.912000749388
 11
7.066371208127
 21
84.357824800435
  0
LINE
  8
Layer0
  6
CONTINUOUS
 62
5
 10
7.066371208127
 20
84.357824800435
 11
6.691374361307
 21
83.796576570748
  0
LINE
  8
Layer0
  6
CONTINUOUS
 62
5
 10
6.691374361307
 20
83.796576570748
 11
6.325609815464
 21
83.228427021977
  0
LINE
  8
Layer0
  6
CONTINUOUS
 62
5
 10
6.325609815464
 20
83.228427021977
 11
5.969188986019
 21
82.653549217976
  0
LINE
  8
Layer0
  6
CONTINUOUS
 62
5
 10
5.969188986019
 20
82.653549217976
 11
5.622220442212
 21
82.072118272094
  0
LINE
  8
Layer0
  6
CONTINUOUS
 62
5
 10
5.622220442212
 20
82.072118272094
 11
5.284809874022
 21
81.484311293829
  0
LINE
  8
Layer0
  6
CONTINUOUS
 62
5
 10
5.284809874022
 20
81.484311293829
 11
4.957060059976
 21
80.890307334882
  0
LINE
  8
Layer0
  6
CONTINUOUS
 62
5
 10
4.957060059976
 20
80.890307334882
 11
4.639070835842
 21
80.290287334612
  0
LINE
  8
Layer0
  6
CONTINUOUS
 62
5
 10
4.639070835842
 20
80.290287334612
 11
4.330939064220
 21
79.684434064925
  0
LINE
  8
Layer0
  6
CONTINUOUS
 62
5
 10
4.330939064220
 20
79.684434064925
 11
4.032758605030
 21
79.072932074594
  0
LINE
  8
Layer0
  6
CONTINUOUS
 62
5
 10
4.032758605030
 20
79.072932074594
 11
3.744620286931
 21
78.455967633051
  0
LINE
  8
Layer0
  6
CONTINUOUS
 62
5
 10
3.744620286931
 20
78.455967633051
 11
3.466611879644
 21
77.833728673640
  0
LINE
  8
Layer0
  6
CONTINUOUS
 62
5
 10
3.466611879644
 20
77.833728673640
 11
3.198818067224
 21
77.206404736376
  0
LINE
  8
Layer0
  6
CONTINUOUS
 62
5
 10
3.198818067224
 20
77.206404736376
 11
2.941320422260
 21
76.574186910209
  0
LINE
  8
Layer0
  6
CONTINUOUS
 62
5
 10
2.941320422260
 20
76.574186910209
 11
2.694197381029
 21
75.937267774811
  0
LINE
  8
Layer0
  6
CONTINUOUS
 62
5
 10
2.694197381029
 20
75.937267774811
 11
2.457524219604
 21
75.295841341922
  0
LINE
  8
Layer0
  6
CONTINUOUS
 62
5
 10
2.457524219604
 20
75.295841341922
 11
2.231373030921
 21
74.650102996246
  0
LINE
  8
Layer0
  6
CONTINUOUS
 62
5
 10
2.231373030921
 20
74.650102996246
 11
2.015812702825
 21
74.000249435940
  0
LINE
  8
Layer0
  6
CONTINUOUS
 62
5
 10
2.015812702825
 20
74.000249435940
 11
1.810908897079
 21
73.346478612693
  0
LINE
  8
Layer0
  6
CONTINUOUS
 62
5
 10
1.810908897079
 20
73.346478612693
 11
1.616724029368
 21
72.688989671430
  0
LINE
  8
Layer0
  6
CONTINUOUS
 62
5
 10
1.616724029368
 20
72.688989671430
 11
1.433317250282
 21
72.027982889654
  0
LINE
  8
Layer0
  6
CONTINUOUS
 62
5
 10
1.433317250282
 20
72.027982889654
 11
1.260744427305
 21
71.363659616432
  0
LINE
  8
Layer0
  6
CONTINUOUS
 62
5
 10
1.260744427305
 20
71.363659616432
 11
1.099058127788
 21
70.696222211069
  0
LINE
  8
Layer0
  6
CONTINUOUS
 62
5
 10
1.099058127788
 20
70.696222211069
 11
0.948307602946
 21
70.025873981465
  0
LINE
  8
Layer0
  6
CONTINUOUS
 62
5
 10
0.948307602946
 20
70.025873981465
 11
0.808538772849
 21
69.352819122184
  0
LINE
  8
Layer0
  6
CONTINUOUS
 62
5
 10
0.808538772849
 20
69.352819122184
 11
0.679794212436
 21
68.677262652256
  0
LINE
  8
Layer0
  6
CONTINUOUS
 62
5
 10
0.679794212436
 20
68.677262652256
 11
0.562113138548
 21
67.999410352726
  0
LINE
  8
Layer0
  6
CONTINUOUS
 62
5
 10
0.562113138548
 20
67.999410352726
 11
0.455531397980
 21
67.319468703971
  0
LINE
  8
Layer0
  6
CONTINUOUS
 62
5
 10
0.455531397980
 20
67.319468703971
 11
0.360081456562
 21
66.637644822805
  0
LINE
  8
Layer0
  6
CONTINUOUS
 62
5
 10
0.360081456562
 20
66.637644822805
 11
0.275792389271
 21
65.954146399386
  0
LINE
  8
Layer0
  6
CONTINUOUS
 62
5
 10
0.275792389271
 20
65.954146399386
 11
0.202689871374
 21
65.269181633955
  0
LINE
  8
Layer0
  6
CONTINUOUS
 62
5
 10
0.202689871374
 20
65.269181633955
 11
0.140796170605
 21
64.582959173415
  0
LINE
  8
Layer0
  6
CONTINUOUS
 62
5
 10
0.140796170605
 20
64.582959173415
 11
0.090130140387
 21
63.895688047775
  0
LINE
  8
Layer0
  6
CONTINUOUS
 62
5
 10
0.090130140387
 20
63.895688047775
 11
0.050707214081
 21
63.207577606479
  0
LINE
  8
Layer0
  6
CONTINUOUS
 62
5
 10
0.050707214081
 20
63.207577606479
 11
0.022539400293
 21
62.518837454631
  0
LINE
  8
Layer0
  6
CONTINUOUS
 62
5
 10
0.022539400293
 20
62.518837454631
 11
0.005635279214
 21
61.829677389155
  0
LINE
  8
Layer0
  6
CONTINUOUS
 62
5
 10
0.005635279214
 20
61.829677389155
 11
0.000000000000
 21
61.140307334882
  0
LINE
  8
Layer0
  6
CONTINUOUS
 62
5
 10
12.999999974665
 20
55.755527924743
 11
12.999999974665
 21
16.180267828456
  0
LINE
  8
Layer0
  6
CONTINUOUS
 62
5
 10
-0.000007507681
 20
10.795488418317
 11
12.999999974665
 21
16.180267828456
  0
LINE
  8
Layer0
  6
CONTINUOUS
 62
5
 10
73.999992437845
 20
10.795494660448
 11
61.000000025335
 21
16.180267828456
  0
LINE
  8
Layer0
  6
CONTINUOUS
 62
5
 10
-0.000000025335
 20
61.140304235593
 11
12.999999974665
 21
55.755527924743
  0
LINE
  8
Layer0
  6
CONTINUOUS
 62
5
 10
74.000000025335
 20
61.140304235593
 11
61.000000025335
 21
55.755527924743
  0
LINE
  8
Layer0
  6
CONTINUOUS
 62
8
 10
46.500220673248
 20
54.255527924743
 11
46.500000000000
 21
54.255527924743
  0
LINE
  8
Layer0
  6
CONTINUOUS
 62
8
 10
37.000000000000
 20
4.836685930723
 11
37.000000000000
 21
0.000000000000
  0
LINE
  8
Layer0
  6
CONTINUOUS
 62
8
 10
37.000000000000
 20
90.640307334882
 11
37.000000000000
 21
99.000000000000
  0
LINE
  8
Layer5
  6
CONTINUOUS
 62
5
 10
37.000000000000
 20
55.592677203352
 11
37.000000000000
 21
16.342677203352
  0
LINE
  8
Layer5
  6
CONTINUOUS
 62
5
 10
37.000000000000
 20
-0.000000000000
 11
37.000000000000
 21
100.640305278975
  0
LINE
  8
Layer0
  6
CONTINUOUS
 62
8
 10
6.500000000000
 20
11.303300858899
 11
1.196699141101
 21
6.000000000000
  0
LINE
  8
Layer0
  6
CONTINUOUS
 62
8
 10
1.196699141101
 20
6.000000000000
 11
6.500000000000
 21
0.696699141101
  0
LINE
  8
Layer0
  6
CONTINUOUS
 62
8
 10
6.500000000000
 20
0.696699141101
 11
11.803300858899
 21
6.000000000000
  0
LINE
  8
Layer0
  6
CONTINUOUS
 62
8
 10
11.803300858899
 20
6.000000000000
 11
6.500000000000
 21
11.303300858899
  0
CIRCLE
  8
Layer0
  6
CONTINUOUS
 62
8
 10
6.500000000000
 20
6.000000000000
 40
2.000000000000
  0
LINE
  8
Layer0
  6
CONTINUOUS
 62
8
 10
61.000000025335
 20
55.755527924743
 11
61.000000025335
 21
16.180267828456
  0
LINE
  8
Layer0
  6
CONTINUOUS
 62
8
 10
37.000000000000
 20
99.000000000000
 11
26.453111068114
 21
99.000000000000
  0
LINE
  8
Layer0
  6
CONTINUOUS
 62
8
 10
37.000000000000
 20
99.000000000000
 11
47.546888931886
 21
99.000000000000
  0
CIRCLE
  8
Layer0
  6
CONTINUOUS
 62
8
 10
37.000000000000
 20
35.967897876600
 40
9.000000000000
  0
CIRCLE
  8
Layer0
  6
CONTINUOUS
 62
8
 10
37.000000000000
 20
35.967897876600
 40
18.000000000000
  0
LINE
  8
Layer5
  6
CONTINUOUS
 62
8
 10
60.500000000000
 20
19.417677203352
 11
62.500000000000
 21
20.667677203352
  0
LINE
  8
Layer5
  6
CONTINUOUS
 62
8
 10
62.500000000000
 20
24.667677203352
 11
60.500000000000
 21
25.917677203352
  0
LINE
  8
Layer5
  6
CONTINUOUS
 62
8
 10
62.500000000000
 20
24.667677203352
 11
62.500000000000
 21
20.667677203352
  0
LINE
  8
Layer5
  6
CONTINUOUS
 62
8
 10
57.000000000000
 20
22.667677203352
 11
73.690000000000
 21
22.667677203352
  0
LINE
  8
Layer5
  6
CONTINUOUS
 62
8
 10
57.000000000000
 20
19.203575588214
 11
57.000000000000
 21
26.131778818490
  0
LINE
  8
Layer5
  6
CONTINUOUS
 62
8
 10
57.000000000000
 20
19.203575588214
 11
59.000000000000
 21
18.667677203352
  0
LINE
  8
Layer5
  6
CONTINUOUS
 62
8
 10
57.000000000000
 20
26.131778818490
 11
59.000000000000
 21
26.667677203352
  0
LINE
  8
Layer5
  6
CONTINUOUS
 62
8
 10
59.000000000000
 20
21.167677203352
 11
74.000000000000
 21
21.167677203352
  0
LINE
  8
Layer5
  6
CONTINUOUS
 62
8
 10
59.000000000000
 20
24.167677203352
 11
74.000000000000
 21
24.167677203352
  0
LINE
  8
Layer5
  6
CONTINUOUS
 62
8
 10
62.500000000000
 20
20.667677203352
 11
62.500000000000
 21
12.617677203352
  0
LINE
  8
Layer5
  6
CONTINUOUS
 62
8
 10
62.500000000000
 20
24.667677203352
 11
62.500000000000
 21
32.717677203352
  0
LINE
  8
Layer5
  6
CONTINUOUS
 62
8
 10
62.500000000000
 20
12.617677203352
 11
65.500000000000
 21
12.617677203352
  0
LINE
  8
Layer5
  6
CONTINUOUS
 62
8
 10
62.500000000000
 20
32.717677203352
 11
65.500000000000
 21
32.717677203352
  0
LINE
  8
Layer5
  6
CONTINUOUS
 62
8
 10
65.500000000000
 20
12.617677203352
 11
65.500000000000
 21
32.717677203352
  0
LINE
  8
Layer5
  6
CONTINUOUS
 62
8
 10
65.500000000000
 20
12.617677203352
 11
65.500000000000
 21
10.667677203352
  0
LINE
  8
Layer5
  6
CONTINUOUS
 62
8
 10
65.500000000000
 20
32.717677203352
 11
65.500000000000
 21
34.667677203352
  0
LINE
  8
Layer5
  6
CONTINUOUS
 62
8
 10
65.500000000000
 20
10.667677203352
 11
74.000000000000
 21
10.667677203352
  0
LINE
  8
Layer5
  6
CONTINUOUS
 62
8
 10
65.500000000000
 20
34.667677203352
 11
74.000000000000
 21
34.667677203352
  0
LINE
  8
Layer5
  6
CONTINUOUS
 62
8
 10
74.000000000000
 20
10.667677203352
 11
74.000000000000
 21
34.667677203352
  0
LINE
  8
Layer5
  6
CONTINUOUS
 62
8
 10
60.500000000000
 20
52.517677203352
 11
62.500000000000
 21
51.267677203352
  0
LINE
  8
Layer5
  6
CONTINUOUS
 62
8
 10
62.500000000000
 20
47.267677203352
 11
60.500000000000
 21
46.017677203352
  0
LINE
  8
Layer5
  6
CONTINUOUS
 62
8
 10
62.500000000000
 20
47.267677203352
 11
62.500000000000
 21
51.267677203352
  0
LINE
  8
Layer5
  6
CONTINUOUS
 62
8
 10
57.000000000000
 20
49.267677203352
 11
73.690000000000
 21
49.267677203352
  0
LINE
  8
Layer5
  6
CONTINUOUS
 62
8
 10
57.000000000000
 20
52.731778818490
 11
57.000000000000
 21
45.803575588214
  0
LINE
  8
Layer5
  6
CONTINUOUS
 62
8
 10
57.000000000000
 20
52.731778818490
 11
59.000000000000
 21
53.267677203352
  0
LINE
  8
Layer5
  6
CONTINUOUS
 62
8
 10
57.000000000000
 20
45.803575588214
 11
59.000000000000
 21
45.267677203352
  0
LINE
  8
Layer5
  6
CONTINUOUS
 62
8
 10
59.000000000000
 20
50.767677203352
 11
74.000000000000
 21
50.767677203352
  0
LINE
  8
Layer5
  6
CONTINUOUS
 62
8
 10
59.000000000000
 20
47.767677203352
 11
74.000000000000
 21
47.767677203352
  0
LINE
  8
Layer5
  6
CONTINUOUS
 62
8
 10
62.500000000000
 20
51.267677203352
 11
62.500000000000
 21
59.317677203352
  0
LINE
  8
Layer5
  6
CONTINUOUS
 62
8
 10
62.500000000000
 20
47.267677203352
 11
62.500000000000
 21
39.217677203352
  0
LINE
  8
Layer5
  6
CONTINUOUS
 62
8
 10
62.500000000000
 20
59.317677203352
 11
65.500000000000
 21
59.317677203352
  0
LINE
  8
Layer5
  6
CONTINUOUS
 62
8
 10
62.500000000000
 20
39.217677203352
 11
65.500000000000
 21
39.217677203352
  0
LINE
  8
Layer5
  6
CONTINUOUS
 62
8
 10
65.500000000000
 20
59.317677203352
 11
65.500000000000
 21
39.217677203352
  0
LINE
  8
Layer5
  6
CONTINUOUS
 62
8
 10
65.500000000000
 20
59.317677203352
 11
65.500000000000
 21
61.267677203352
  0
LINE
  8
Layer5
  6
CONTINUOUS
 62
8
 10
65.500000000000
 20
39.217677203352
 11
65.500000000000
 21
37.267677203352
  0
LINE
  8
Layer5
  6
CONTINUOUS
 62
8
 10
65.500000000000
 20
61.267677203352
 11
74.000000000000
 21
61.267677203352
  0
LINE
  8
Layer5
  6
CONTINUOUS
 62
8
 10
65.500000000000
 20
37.267677203352
 11
74.000000000000
 21
37.267677203352
  0
LINE
  8
Layer5
  6
CONTINUOUS
 62
8
 10
74.000000000000
 20
61.267677203352
 11
74.000000000000
 21
37.267677203352
  0
LINE
  8
Layer5
  6
CONTINUOUS
 62
8
 10
13.500000000000
 20
19.417677203352
 11
11.500000000000
 21
20.667677203352
  0
LINE
  8
Layer5
  6
CONTINUOUS
 62
8
 10
11.500000000000
 20
24.667677203352
 11
13.500000000000
 21
25.917677203352
  0
LINE
  8
Layer5
  6
CONTINUOUS
 62
8
 10
11.500000000000
 20
24.667677203352
 11
11.500000000000
 21
20.667677203352
  0
LINE
  8
Layer5
  6
CONTINUOUS
 62
8
 10
17.000000000000
 20
22.667677203352
 11
0.310000000000
 21
22.667677203352
  0
LINE
  8
Layer5
  6
CONTINUOUS
 62
8
 10
17.000000000000
 20
19.203575588214
 11
17.000000000000
 21
26.131778818490
  0
LINE
  8
Layer5
  6
CONTINUOUS
 62
8
 10
17.000000000000
 20
19.203575588214
 11
15.000000000000
 21
18.667677203352
  0
LINE
  8
Layer5
  6
CONTINUOUS
 62
8
 10
17.000000000000
 20
26.131778818490
 11
15.000000000000
 21
26.667677203352
  0
LINE
  8
Layer5
  6
CONTINUOUS
 62
8
 10
15.000000000000
 20
21.167677203352
 11
0.000000000000
 21
21.167677203352
  0
LINE
  8
Layer5
  6
CONTINUOUS
 62
8
 10
15.000000000000
 20
24.167677203352
 11
0.000000000000
 21
24.167677203352
  0
LINE
  8
Layer5
  6
CONTINUOUS
 62
8
 10
11.500000000000
 20
20.667677203352
 11
11.500000000000
 21
12.617677203352
  0
LINE
  8
Layer5
  6
CONTINUOUS
 62
8
 10
11.500000000000
 20
24.667677203352
 11
11.500000000000
 21
32.717677203352
  0
LINE
  8
Layer5
  6
CONTINUOUS
 62
8
 10
11.500000000000
 20
12.617677203352
 11
8.500000000000
 21
12.617677203352
  0
LINE
  8
Layer5
  6
CONTINUOUS
 62
8
 10
11.500000000000
 20
32.717677203352
 11
8.500000000000
 21
32.717677203352
  0
LINE
  8
Layer5
  6
CONTINUOUS
 62
8
 10
8.500000000000
 20
12.617677203352
 11
8.500000000000
 21
32.717677203352
  0
LINE
  8
Layer5
  6
CONTINUOUS
 62
8
 10
8.500000000000
 20
12.617677203352
 11
8.500000000000
 21
10.667677203352
  0
LINE
  8
Layer5
  6
CONTINUOUS
 62
8
 10
8.500000000000
 20
32.717677203352
 11
8.500000000000
 21
34.667677203352
  0
LINE
  8
Layer5
  6
CONTINUOUS
 62
8
 10
8.500000000000
 20
10.667677203352
 11
0.000000000000
 21
10.667677203352
  0
LINE
  8
Layer5
  6
CONTINUOUS
 62
8
 10
8.500000000000
 20
34.667677203352
 11
0.000000000000
 21
34.667677203352
  0
LINE
  8
Layer5
  6
CONTINUOUS
 62
8
 10
0.000000000000
 20
10.667677203352
 11
0.000000000000
 21
34.667677203352
  0
LINE
  8
Layer5
  6
CONTINUOUS
 62
8
 10
13.500000000000
 20
52.517677203352
 11
11.500000000000
 21
51.267677203352
  0
LINE
  8
Layer5
  6
CONTINUOUS
 62
8
 10
11.500000000000
 20
47.267677203352
 11
13.500000000000
 21
46.017677203352
  0
LINE
  8
Layer5
  6
CONTINUOUS
 62
8
 10
11.500000000000
 20
47.267677203352
 11
11.500000000000
 21
51.267677203352
  0
LINE
  8
Layer5
  6
CONTINUOUS
 62
8
 10
17.000000000000
 20
49.267677203352
 11
0.310000000000
 21
49.267677203352
  0
LINE
  8
Layer5
  6
CONTINUOUS
 62
8
 10
17.000000000000
 20
52.731778818490
 11
17.000000000000
 21
45.803575588214
  0
LINE
  8
Layer5
  6
CONTINUOUS
 62
8
 10
17.000000000000
 20
52.731778818490
 11
15.000000000000
 21
53.267677203352
  0
LINE
  8
Layer5
  6
CONTINUOUS
 62
8
 10
17.000000000000
 20
45.803575588214
 11
15.000000000000
 21
45.267677203352
  0
LINE
  8
Layer5
  6
CONTINUOUS
 62
8
 10
15.000000000000
 20
50.767677203352
 11
0.000000000000
 21
50.767677203352
  0
LINE
  8
Layer5
  6
CONTINUOUS
 62
8
 10
15.000000000000
 20
47.767677203352
 11
0.000000000000
 21
47.767677203352
  0
LINE
  8
Layer5
  6
CONTINUOUS
 62
8
 10
11.500000000000
 20
51.267677203352
 11
11.500000000000
 21
59.317677203352
  0
LINE
  8
Layer5
  6
CONTINUOUS
 62
8
 10
11.500000000000
 20
47.267677203352
 11
11.500000000000
 21
39.217677203352
  0
LINE
  8
Layer5
  6
CONTINUOUS
 62
8
 10
11.500000000000
 20
59.317677203352
 11
8.500000000000
 21
59.317677203352
  0
LINE
  8
Layer5
  6
CONTINUOUS
 62
8
 10
11.500000000000
 20
39.217677203352
 11
8.500000000000
 21
39.217677203352
  0
LINE
  8
Layer5
  6
CONTINUOUS
 62
8
 10
8.500000000000
 20
59.317677203352
 11
8.500000000000
 21
39.217677203352
  0
LINE
  8
Layer5
  6
CONTINUOUS
 62
8
 10
8.500000000000
 20
59.317677203352
 11
8.500000000000
 21
61.267677203352
  0
LINE
  8
Layer5
  6
CONTINUOUS
 62
8
 10
8.500000000000
 20
39.217677203352
 11
8.500000000000
 21
37.267677203352
  0
LINE
  8
Layer5
  6
CONTINUOUS
 62
8
 10
8.500000000000
 20
61.267677203352
 11
0.000000000000
 21
61.267677203352
  0
LINE
  8
Layer5
  6
CONTINUOUS
 62
8
 10
8.500000000000
 20
37.267677203352
 11
0.000000000000
 21
37.267677203352
  0
LINE
  8
Layer5
  6
CONTINUOUS
 62
8
 10
0.000000000000
 20
61.267677203352
 11
0.000000000000
 21
37.267677203352
  0
LINE
  8
Layer0
  6
CONTINUOUS
 62
8
 10
58.500000000000
 20
57.017897876600
 11
47.000000000000
 21
57.017897876600
  0
LINE
  8
Layer0
  6
CONTINUOUS
 62
8
 10
60.500000000000
 20
4.936685930723
 11
59.000000000000
 21
4.936685930723
  0
LINE
  8
Layer0
  6
CONTINUOUS
 62
8
 10
58.500000000000
 20
55.517897876600
 11
47.000000000000
 21
55.517897876600
  0
LINE
  8
Layer0
  6
CONTINUOUS
 62
8
 10
59.000000000000
 20
51.767897876600
 11
56.500000000000
 21
51.767897876600
  0
LINE
  8
Layer0
  6
CONTINUOUS
 62
8
 10
59.000000000000
 20
46.767897876600
 11
56.500000000000
 21
46.767897876600
  0
LINE
  8
Layer0
  6
CONTINUOUS
 62
8
 10
59.000000000000
 20
25.167897876600
 11
56.500000000000
 21
25.167897876600
  0
LINE
  8
Layer0
  6
CONTINUOUS
 62
8
 10
59.000000000000
 20
20.167897876600
 11
56.500000000000
 21
20.167897876600
  0
CIRCLE
  8
Layer0
  6
CONTINUOUS
 62
8
 10
56.500000000000
 20
22.667897876600
 40
1.000000000000
  0
CIRCLE
  8
Layer0
  6
CONTINUOUS
 62
8
 10
56.500000000000
 20
49.267897876600
 40
1.000000000000
  0
ARC
  8
Layer0
  6
CONTINUOUS
 62
8
 10
56.500000000000
 20
49.267897876600
 40
2.500000000000
 50
-270.000000000000
 51
-90.000000000000
  0
ARC
  8
Layer0
  6
CONTINUOUS
 62
8
 10
56.500000000000
 20
22.667897876600
 40
2.500000000000
 50
-270.000000000000
 51
-90.000000000000
  0
LINE
  8
Layer0
  6
CONTINUOUS
 62
8
 10
15.500000000000
 20
57.017897876600
 11
27.000000000000
 21
57.017897876600
  0
LINE
  8
Layer0
  6
CONTINUOUS
 62
8
 10
15.500000000000
 20
55.517897876600
 11
27.000000000000
 21
55.517897876600
  0
LINE
  8
Layer0
  6
CONTINUOUS
 62
8
 10
15.000000000000
 20
51.767897876600
 11
17.500000000000
 21
51.767897876600
  0
LINE
  8
Layer0
  6
CONTINUOUS
 62
8
 10
15.000000000000
 20
46.767897876600
 11
17.500000000000
 21
46.767897876600
  0
LINE
  8
Layer0
  6
CONTINUOUS
 62
8
 10
15.000000000000
 20
25.167897876600
 11
17.500000000000
 21
25.167897876600
  0
LINE
  8
Layer0
  6
CONTINUOUS
 62
8
 10
15.000000000000
 20
20.167897876600
 11
17.500000000000
 21
20.167897876600
  0
CIRCLE
  8
Layer0
  6
CONTINUOUS
 62
8
 10
17.500000000000
 20
22.667897876600
 40
1.000000000000
  0
CIRCLE
  8
Layer0
  6
CONTINUOUS
 62
8
 10
17.500000000000
 20
49.267897876600
 40
1.000000000000
  0
ARC
  8
Layer0
  6
CONTINUOUS
 62
8
 10
17.500000000000
 20
49.267897876600
 40
2.500000000000
 50
-90.000000000000
 51
90.000000000000
  0
ARC
  8
Layer0
  6
CONTINUOUS
 62
8
 10
17.500000000000
 20
22.667897876600
 40
2.500000000000
 50
-90.000000000000
 51
90.000000000000
  0
LINE
  8
Layer0
  6
CONTINUOUS
 62
8
 10
13.500000000000
 20
6.784273702403
 11
15.000000000000
 21
6.784273702403
  0
LINE
  8
Layer0
  6
CONTINUOUS
 62
8
 10
15.000000000000
 20
51.767897876600
 11
15.000000000000
 21
55.017897876600
  0
LINE
  8
Layer0
  6
CONTINUOUS
 62
8
 10
15.000000000000
 20
20.167897876600
 11
15.000000000000
 21
6.784273702403
  0
ARC
  8
Layer0
  6
CONTINUOUS
 62
8
 10
15.500000000000
 20
55.017897876600
 40
2.000000000000
 50
90.000000000000
 51
180.000000000000
  0
ARC
  8
Layer0
  6
CONTINUOUS
 62
8
 10
15.500000000000
 20
55.017897876600
 40
0.500000000000
 50
90.000000000000
 51
180.000000000000
  0
ARC
  8
Layer0
  6
CONTINUOUS
 62
8
 10
58.500000000000
 20
55.017897876600
 40
2.000000000000
 50
-360.000000000000
 51
-270.000000000000
  0
ARC
  8
Layer0
  6
CONTINUOUS
 62
8
 10
58.500000000000
 20
55.017897876600
 40
0.500000000000
 50
0.000000000000
 51
90.000000000000
  0
LINE
  8
Layer0
  6
CONTINUOUS
 62
8
 10
47.000000000000
 20
57.017897876600
 11
47.000000000000
 21
55.517897876600
  0
LINE
  8
Layer0
  6
CONTINUOUS
 62
8
 10
27.000000000000
 20
57.017897876600
 11
27.000000000000
 21
55.517897876600
  0
LINE
  8
Layer0
  6
CONTINUOUS
 62
8
 10
15.000000000000
 20
18.667897876600
 11
15.000000000000
 21
20.167897876600
  0
LINE
  8
Layer0
  6
CONTINUOUS
 62
8
 10
15.000000000000
 20
53.267897876600
 11
15.000000000000
 21
51.767897876600
  0
LINE
  8
Layer0
  6
CONTINUOUS
 62
8
 10
59.000000000000
 20
14.836685930723
 11
50.800000000000
 21
14.836685930723
  0
LINE
  8
Layer0
  6
CONTINUOUS
 62
8
 10
15.000000000000
 20
16.684273702403
 11
47.900000000000
 21
16.684273702403
  0
LINE
  8
Layer0
  6
CONTINUOUS
 62
8
 10
15.000000000000
 20
6.684273702403
 11
47.900000000000
 21
6.684273702403
  0
LINE
  8
Layer0
  6
CONTINUOUS
 62
8
 10
59.000000000000
 20
4.936685930723
 11
59.000000000000
 21
4.836685930723
  0
LINE
  8
Layer0
  6
CONTINUOUS
 62
8
 10
59.000000000000
 20
4.836685930723
 11
23.200000000000
 21
4.836685930723
  0
LINE
  8
Layer0
  6
CONTINUOUS
 62
8
 10
47.900000000000
 20
16.684273702403
 11
50.800000000000
 21
16.684273702403
  0
LINE
  8
Layer0
  6
CONTINUOUS
 62
8
 10
50.800000000000
 20
16.684273702403
 11
50.800000000000
 21
6.684273702403
  0
LINE
  8
Layer0
  6
CONTINUOUS
 62
8
 10
47.900000000000
 20
6.684273702403
 11
50.800000000000
 21
6.684273702403
  0
LINE
  8
Layer0
  6
CONTINUOUS
 62
8
 10
15.000000000000
 20
6.684273702403
 11
15.000000000000
 21
16.684273702403
  0
LINE
  8
Layer0
  6
CONTINUOUS
 62
8
 10
23.200000000000
 20
4.836685930723
 11
23.200000000000
 21
6.684273702403
  0
LINE
  8
Layer0
  6
CONTINUOUS
 62
8
 10
59.000000000000
 20
14.836685930723
 11
59.000000000000
 21
4.836685930723
  0
LINE
  8
Layer4
  6
CONTINUOUS
 62
8
 10
56.500000000000
 20
44.217897876600
 11
56.500000000000
 21
39.167897876600
  0
LINE
  8
Layer4
  6
CONTINUOUS
 62
8
 10
59.000000000000
 20
44.217897876600
 11
56.500000000000
 21
44.217897876600
  0
LINE
  8
Layer4
  6
CONTINUOUS
 62
8
 10
59.000000000000
 20
44.217897876600
 11
59.000000000000
 21
39.967897876600
  0
LINE
  8
Layer4
  6
CONTINUOUS
 62
8
 10
59.000000000000
 20
27.717897876600
 11
56.500000000000
 21
27.717897876600
  0
LINE
  8
Layer4
  6
CONTINUOUS
 62
8
 10
56.500000000000
 20
39.167897876600
 11
57.100000000000
 21
39.167897876600
  0
LINE
  8
Layer4
  6
CONTINUOUS
 62
8
 10
56.500000000000
 20
32.767897876600
 11
57.100000000000
 21
32.767897876600
  0
LINE
  8
Layer4
  6
CONTINUOUS
 62
8
 10
57.100000000000
 20
39.167897876600
 11
57.100000000000
 21
38.467897876600
  0
LINE
  8
Layer4
  6
CONTINUOUS
 62
8
 10
56.500000000000
 20
32.767897876600
 11
56.500000000000
 21
27.717897876600
  0
LINE
  8
Layer4
  6
CONTINUOUS
 62
8
 10
57.100000000000
 20
33.467897876600
 11
57.100000000000
 21
32.767897876600
  0
LINE
  8
Layer4
  6
CONTINUOUS
 62
8
 10
59.000000000000
 20
31.967897876600
 11
59.000000000000
 21
27.717897876600
  0
LINE
  8
Layer4
  6
CONTINUOUS
 62
8
 10
61.000000025335
 20
39.717897876600
 11
59.000000000000
 21
39.717897876600
  0
LINE
  8
Layer4
  6
CONTINUOUS
 62
8
 10
61.000000025335
 20
32.217897876600
 11
59.000000000000
 21
32.217897876600
  0
LINE
  8
Layer4
  6
CONTINUOUS
 62
8
 10
59.000000000000
 20
31.967897876600
 11
59.000000000000
 21
32.217897876600
  0
LINE
  8
Layer4
  6
CONTINUOUS
 62
8
 10
59.000000000000
 20
39.717897876600
 11
59.000000000000
 21
39.967897876600
  0
LINE
  8
Layer4
  6
CONTINUOUS
 62
8
 10
57.350000000000
 20
32.217897876600
 11
57.300000000000
 21
32.217897876600
  0
LINE
  8
Layer4
  6
CONTINUOUS
 62
8
 10
57.100000000000
 20
38.467897876600
 11
61.000000000000
 21
38.467897876600
  0
LINE
  8
Layer4
  6
CONTINUOUS
 62
8
 10
57.100000000000
 20
33.467897876600
 11
61.000000000000
 21
33.467897876600
  0
LINE
  8
Layer4
  6
CONTINUOUS
 62
8
 10
61.000000025335
 20
39.717897876600
 11
61.000000025335
 21
38.467897876600
  0
LINE
  8
Layer4
  6
CONTINUOUS
 62
8
 10
61.000000025335
 20
33.467897876600
 11
61.000000025335
 21
32.217897876600
  0
LINE
  8
Layer3
  6
CONTINUOUS
 62
8
 10
57.100000000000
 20
39.017897876600
 11
56.500000000000
 21
39.017897876600
  0
LINE
  8
Layer3
  6
CONTINUOUS
 62
8
 10
57.100000000000
 20
32.917897876600
 11
56.500000000000
 21
32.917897876600
  0
LINE
  8
Layer3
  6
CONTINUOUS
 62
8
 10
57.100000000000
 20
32.917897876600
 11
57.100000000000
 21
33.467897876600
  0
LINE
  8
Layer3
  6
CONTINUOUS
 62
8
 10
57.100000000000
 20
33.467897876600
 11
58.800000000000
 21
33.467897876600
  0
LINE
  8
Layer3
  6
CONTINUOUS
 62
8
 10
56.500000000000
 20
32.917897876600
 11
56.500000000000
 21
34.967897876600
  0
LINE
  8
Layer3
  6
CONTINUOUS
 62
8
 10
61.000000025335
 20
32.917897876600
 11
61.600000025335
 21
32.917897876600
  0
LINE
  8
Layer3
  6
CONTINUOUS
 62
8
 10
61.000000025335
 20
39.017897876600
 11
61.600000025335
 21
39.017897876600
  0
LINE
  8
Layer3
  6
CONTINUOUS
 62
8
 10
59.300000025335
 20
33.467897876600
 11
61.000000025335
 21
33.467897876600
  0
LINE
  8
Layer3
  6
CONTINUOUS
 62
8
 10
59.300000025335
 20
33.467897876600
 11
59.300000025335
 21
34.967897876600
  0
LINE
  8
Layer3
  6
CONTINUOUS
 62
8
 10
61.000000025335
 20
38.467897876600
 11
59.300000025335
 21
38.467897876600
  0
LINE
  8
Layer3
  6
CONTINUOUS
 62
8
 10
57.100000000000
 20
32.917677203352
 11
56.500000000000
 21
32.917677203352
  0
LINE
  8
Layer3
  6
CONTINUOUS
 62
8
 10
57.100000000000
 20
32.917677203352
 11
57.100000000000
 21
33.467677203352
  0
LINE
  8
Layer3
  6
CONTINUOUS
 62
8
 10
57.100000000000
 20
39.017677203352
 11
57.100000000000
 21
38.467677203352
  0
LINE
  8
Layer3
  6
CONTINUOUS
 62
8
 10
58.800000000000
 20
38.467677203352
 11
58.800000000000
 21
36.967897876600
  0
LINE
  8
Layer3
  6
CONTINUOUS
 62
8
 10
57.100000000000
 20
33.467677203352
 11
58.800000000000
 21
33.467677203352
  0
LINE
  8
Layer3
  6
CONTINUOUS
 62
8
 10
61.000000025335
 20
39.017677203352
 11
61.000000025335
 21
38.467677203352
  0
LINE
  8
Layer3
  6
CONTINUOUS
 62
8
 10
61.000000025335
 20
32.917677203352
 11
61.000000025335
 21
33.467677203352
  0
LINE
  8
Layer3
  6
CONTINUOUS
 62
8
 10
61.600000025335
 20
39.017677203352
 11
61.600000025335
 21
36.967897876600
  0
LINE
  8
Layer4
  6
CONTINUOUS
 62
8
 10
17.500000000000
 20
44.217897876600
 11
17.500000000000
 21
39.167897876600
  0
LINE
  8
Layer4
  6
CONTINUOUS
 62
8
 10
15.000000000000
 20
44.217897876600
 11
17.500000000000
 21
44.217897876600
  0
LINE
  8
Layer4
  6
CONTINUOUS
 62
8
 10
15.000000000000
 20
44.217897876600
 11
15.000000000000
 21
39.967897876600
  0
LINE
  8
Layer4
  6
CONTINUOUS
 62
8
 10
15.000000000000
 20
27.717897876600
 11
17.500000000000
 21
27.717897876600
  0
LINE
  8
Layer4
  6
CONTINUOUS
 62
8
 10
17.500000000000
 20
39.167897876600
 11
16.900000000000
 21
39.167897876600
  0
LINE
  8
Layer4
  6
CONTINUOUS
 62
8
 10
17.500000000000
 20
32.767897876600
 11
16.900000000000
 21
32.767897876600
  0
LINE
  8
Layer4
  6
CONTINUOUS
 62
8
 10
16.900000000000
 20
39.167897876600
 11
16.900000000000
 21
38.467897876600
  0
LINE
  8
Layer4
  6
CONTINUOUS
 62
8
 10
17.500000000000
 20
32.767897876600
 11
17.500000000000
 21
27.717897876600
  0
LINE
  8
Layer4
  6
CONTINUOUS
 62
8
 10
16.900000000000
 20
33.467897876600
 11
16.900000000000
 21
32.767897876600
  0
LINE
  8
Layer4
  6
CONTINUOUS
 62
8
 10
15.000000000000
 20
31.967897876600
 11
15.000000000000
 21
27.717897876600
  0
LINE
  8
Layer4
  6
CONTINUOUS
 62
8
 10
12.999999974665
 20
39.717897876600
 11
15.000000000000
 21
39.717897876600
  0
LINE
  8
Layer4
  6
CONTINUOUS
 62
8
 10
12.999999974665
 20
32.217897876600
 11
15.000000000000
 21
32.217897876600
  0
LINE
  8
Layer4
  6
CONTINUOUS
 62
8
 10
15.000000000000
 20
31.967897876600
 11
15.000000000000
 21
32.217897876600
  0
LINE
  8
Layer4
  6
CONTINUOUS
 62
8
 10
15.000000000000
 20
39.717897876600
 11
15.000000000000
 21
39.967897876600
  0
LINE
  8
Layer4
  6
CONTINUOUS
 62
8
 10
16.650000000000
 20
32.217897876600
 11
16.700000000000
 21
32.217897876600
  0
LINE
  8
Layer4
  6
CONTINUOUS
 62
8
 10
16.900000000000
 20
38.467897876600
 11
13.000000000000
 21
38.467897876600
  0
LINE
  8
Layer4
  6
CONTINUOUS
 62
8
 10
16.900000000000
 20
33.467897876600
 11
13.000000000000
 21
33.467897876600
  0
LINE
  8
Layer4
  6
CONTINUOUS
 62
8
 10
12.999999974665
 20
39.717897876600
 11
12.999999974665
 21
38.467897876600
  0
LINE
  8
Layer4
  6
CONTINUOUS
 62
8
 10
12.999999974665
 20
33.467897876600
 11
12.999999974665
 21
32.217897876600
  0
LINE
  8
Layer3
  6
CONTINUOUS
 62
8
 10
16.900000000000
 20
39.017897876600
 11
17.500000000000
 21
39.017897876600
  0
LINE
  8
Layer3
  6
CONTINUOUS
 62
8
 10
16.900000000000
 20
32.917897876600
 11
17.500000000000
 21
32.917897876600
  0
LINE
  8
Layer3
  6
CONTINUOUS
 62
8
 10
16.900000000000
 20
33.467897876600
 11
15.200000000000
 21
33.467897876600
  0
LINE
  8
Layer3
  6
CONTINUOUS
 62
8
 10
12.999999974665
 20
39.017897876600
 11
12.399999974665
 21
39.017897876600
  0
LINE
  8
Layer3
  6
CONTINUOUS
 62
8
 10
14.699999974665
 20
33.467897876600
 11
12.999999974665
 21
33.467897876600
  0
LINE
  8
Layer3
  6
CONTINUOUS
 62
8
 10
12.999999974665
 20
38.467897876600
 11
14.699999974665
 21
38.467897876600
  0
LINE
  8
Layer3
  6
CONTINUOUS
 62
8
 10
16.900000000000
 20
32.917677203352
 11
16.900000000000
 21
33.467677203352
  0
LINE
  8
Layer3
  6
CONTINUOUS
 62
8
 10
16.900000000000
 20
39.017677203352
 11
16.900000000000
 21
38.467677203352
  0
LINE
  8
Layer3
  6
CONTINUOUS
 62
8
 10
15.200000000000
 20
38.467677203352
 11
16.900000000000
 21
38.467677203352
  0
LINE
  8
Layer3
  6
CONTINUOUS
 62
8
 10
15.200000000000
 20
38.467677203352
 11
15.200000000000
 21
36.967897876600
  0
LINE
  8
Layer3
  6
CONTINUOUS
 62
8
 10
17.500000000000
 20
32.917677203352
 11
17.500000000000
 21
34.967897876600
  0
LINE
  8
Layer3
  6
CONTINUOUS
 62
8
 10
12.999999974665
 20
32.917677203352
 11
12.399999974665
 21
32.917677203352
  0
LINE
  8
Layer3
  6
CONTINUOUS
 62
8
 10
12.999999974665
 20
39.017677203352
 11
12.999999974665
 21
38.467677203352
  0
LINE
  8
Layer3
  6
CONTINUOUS
 62
8
 10
12.999999974665
 20
32.917677203352
 11
12.999999974665
 21
33.467677203352
  0
LINE
  8
Layer3
  6
CONTINUOUS
 62
8
 10
12.399999974665
 20
39.017677203352
 11
12.399999974665
 21
36.967897876600
  0
LINE
  8
Layer4
  6
CONTINUOUS
 62
8
 10
16.650000000000
 20
30.217897876600
 11
16.650000000000
 21
34.717897876600
  0
LINE
  8
Layer4
  6
CONTINUOUS
 62
8
 10
16.650000000000
 20
27.717897876600
 11
13.500000000000
 21
27.717897876600
  0
LINE
  8
Layer4
  6
CONTINUOUS
 62
8
 10
16.650000000000
 20
44.217897876600
 11
13.500000000000
 21
44.217897876600
  0
LINE
  8
Layer4
  6
CONTINUOUS
 62
8
 10
16.650000000000
 20
30.217897876600
 11
13.500000000000
 21
30.217897876600
  0
LINE
  8
Layer4
  6
CONTINUOUS
 62
8
 10
16.650000000000
 20
41.717897876600
 11
13.500000000000
 21
41.717897876600
  0
LINE
  8
Layer4
  6
CONTINUOUS
 62
8
 10
16.650000000000
 20
34.717897876600
 11
13.500000000000
 21
34.717897876600
  0
LINE
  8
Layer4
  6
CONTINUOUS
 62
8
 10
16.650000000000
 20
37.217897876600
 11
13.500000000000
 21
37.217897876600
  0
LINE
  8
Layer4
  6
CONTINUOUS
 62
8
 10
16.650000000000
 20
37.217897876600
 11
16.650000000000
 21
41.717897876600
  0
CIRCLE
  8
Layer4
  6
CONTINUOUS
 62
8
 10
37.000000000000
 20
35.967897876600
 40
2.150000000000
  0
CIRCLE
  8
Layer4
  6
CONTINUOUS
 62
8
 10
33.500000000000
 20
35.967897876600
 40
0.800000000000
  0
CIRCLE
  8
Layer4
  6
CONTINUOUS
 62
8
 10
40.500000000000
 20
35.967897876600
 40
0.800000000000
  0
LINE
  8
Layer4
  6
CONTINUOUS
 62
8
 10
16.650000000000
 20
30.217897876600
 11
16.650000000000
 21
34.717897876600
  0
LINE
  8
Layer4
  6
CONTINUOUS
 62
8
 10
57.350000000000
 20
30.217897876600
 11
57.350000000000
 21
34.717897876600
  0
LINE
  8
Layer4
  6
CONTINUOUS
 62
8
 10
57.350000000000
 20
44.217897876600
 11
60.500000000000
 21
44.217897876600
  0
LINE
  8
Layer4
  6
CONTINUOUS
 62
8
 10
57.350000000000
 20
30.217897876600
 11
60.500000000000
 21
30.217897876600
  0
LINE
  8
Layer4
  6
CONTINUOUS
 62
8
 10
57.350000000000
 20
41.717897876600
 11
60.500000000000
 21
41.717897876600
  0
LINE
  8
Layer4
  6
CONTINUOUS
 62
8
 10
57.350000000000
 20
34.717897876600
 11
60.500000000000
 21
34.717897876600
  0
LINE
  8
Layer4
  6
CONTINUOUS
 62
8
 10
57.350000000000
 20
37.217897876600
 11
60.500000000000
 21
37.217897876600
  0
LINE
  8
Layer4
  6
CONTINUOUS
 62
8
 10
57.350000000000
 20
37.217897876600
 11
57.350000000000
 21
41.717897876600
  0
LINE
  8
Layer4
  6
CONTINUOUS
 62
8
 10
57.350000000000
 20
30.217897876600
 11
57.350000000000
 21
34.717897876600
  0
LINE
  8
Layer4
  6
CONTINUOUS
 62
8
 10
16.650000000000
 20
27.717897876600
 11
57.350000000000
 21
27.717897876600
  0
LINE
  8
Layer4
  6
CONTINUOUS
 62
8
 10
16.650000000000
 20
44.217897876600
 11
57.350000000000
 21
44.217897876600
  0
LINE
  8
Layer4
  6
CONTINUOUS
 62
8
 10
43.575000000000
 20
33.150558110610
 11
43.575000000000
 21
38.785237642589
  0
ARC
  8
Layer4
  6
CONTINUOUS
 62
8
 10
43.575000000000
 20
30.374716058418
 40
1.000000000000
 50
90.000000000000
 51
90.000000000000
  0
ARC
  8
Layer4
  6
CONTINUOUS
 62
8
 10
43.731818181818
 20
41.717897876600
 40
1.000000000000
 50
0.000000000000
 51
0.000000000000
  0
LINE
  8
Layer4
  6
CONTINUOUS
 62
8
 10
44.847948361047
 20
39.322848107217
 11
47.744278961597
 21
36.505508341228
  0
LINE
  8
Layer4
  6
CONTINUOUS
 62
8
 10
44.847948361047
 20
32.612947645982
 11
47.744278961597
 21
35.430287411971
  0
LINE
  8
Layer4
  6
CONTINUOUS
 62
8
 10
55.075000000000
 20
33.150558110610
 11
55.075000000000
 21
38.785237642589
  0
ARC
  8
Layer4
  6
CONTINUOUS
 62
8
 10
54.918181818182
 20
41.717897876600
 40
1.000000000000
 50
180.000000000000
 51
180.000000000000
  0
LINE
  8
Layer4
  6
CONTINUOUS
 62
8
 10
53.802051638953
 20
39.322848107217
 11
50.905721038403
 21
36.505508341228
  0
LINE
  8
Layer4
  6
CONTINUOUS
 62
8
 10
53.802051638953
 20
32.612947645982
 11
50.905721038403
 21
35.430287411971
  0
LINE
  8
Layer4
  6
CONTINUOUS
 62
8
 10
52.142339765989
 20
30.217897876600
 11
46.507660234011
 21
30.217897876600
  0
ARC
  8
Layer4
  6
CONTINUOUS
 62
8
 10
54.918181818182
 20
30.217897876600
 40
1.000000000000
 50
180.000000000000
 51
180.000000000000
  0
LINE
  8
Layer4
  6
CONTINUOUS
 62
8
 10
45.970049769383
 20
31.490846237647
 11
48.787389535372
 21
34.387176838197
  0
LINE
  8
Layer4
  6
CONTINUOUS
 62
8
 10
52.679950230617
 20
31.490846237647
 11
49.862610464628
 21
34.387176838197
  0
LINE
  8
Layer4
  6
CONTINUOUS
 62
8
 10
52.142339765989
 20
41.717897876600
 11
46.507660234011
 21
41.717897876600
  0
LINE
  8
Layer4
  6
CONTINUOUS
 62
8
 10
45.970049769383
 20
40.444949515552
 11
48.787389535372
 21
37.548618915002
  0
LINE
  8
Layer4
  6
CONTINUOUS
 62
8
 10
52.679950230617
 20
40.444949515552
 11
49.862610464628
 21
37.548618915002
  0
ARC
  8
Layer4
  6
CONTINUOUS
 62
8
 10
52.142339765989
 20
40.967897876600
 40
0.750000000000
 50
-44.207942907837
 51
90.000000000000
  0
ARC
  8
Layer4
  6
CONTINUOUS
 62
8
 10
46.507660234011
 20
40.967897876600
 40
0.750000000000
 50
90.000000000000
 51
224.207942907837
  0
ARC
  8
Layer4
  6
CONTINUOUS
 62
8
 10
44.325000000000
 20
38.785237642589
 40
0.750000000000
 50
45.792057092163
 51
180.000000000000
  0
ARC
  8
Layer4
  6
CONTINUOUS
 62
8
 10
44.325000000000
 20
33.150558110610
 40
0.750000000000
 50
-180.000000000000
 51
-45.792057092163
  0
ARC
  8
Layer4
  6
CONTINUOUS
 62
8
 10
47.221330600550
 20
35.967897876600
 40
0.750000000000
 50
-45.792057092163
 51
45.792057092162
  0
ARC
  8
Layer4
  6
CONTINUOUS
 62
8
 10
51.428669399450
 20
35.967897876600
 40
0.750000000000
 50
134.207942907838
 51
225.792057092163
  0
ARC
  8
Layer4
  6
CONTINUOUS
 62
8
 10
54.325000000000
 20
38.785237642589
 40
0.750000000000
 50
0.000000000000
 51
134.207942907837
  0
ARC
  8
Layer4
  6
CONTINUOUS
 62
8
 10
54.325000000000
 20
33.150558110610
 40
0.750000000000
 50
-134.207942907837
 51
0.000000000000
  0
ARC
  8
Layer4
  6
CONTINUOUS
 62
8
 10
52.142339765989
 20
30.967897876600
 40
0.750000000000
 50
-90.000000000000
 51
44.207942907838
  0
ARC
  8
Layer4
  6
CONTINUOUS
 62
8
 10
49.325000000000
 20
33.864228477149
 40
0.750000000000
 50
44.207942907837
 51
135.792057092163
  0
ARC
  8
Layer4
  6
CONTINUOUS
 62
8
 10
46.507660234011
 20
30.967897876600
 40
0.750000000000
 50
135.792057092162
 51
270.000000000000
  0
LINE
  8
Layer4
  6
CONTINUOUS
 62
8
 10
30.425000000000
 20
33.150558110610
 11
30.425000000000
 21
38.785237642589
  0
ARC
  8
Layer4
  6
CONTINUOUS
 62
8
 10
30.425000000000
 20
30.374716058418
 40
1.000000000000
 50
90.000000000000
 51
90.000000000000
  0
ARC
  8
Layer4
  6
CONTINUOUS
 62
8
 10
30.268181818182
 20
41.717897876600
 40
1.000000000000
 50
180.000000000000
 51
180.000000000000
  0
LINE
  8
Layer4
  6
CONTINUOUS
 62
8
 10
29.152051638953
 20
39.322848107217
 11
26.255721038403
 21
36.505508341228
  0
LINE
  8
Layer4
  6
CONTINUOUS
 62
8
 10
29.152051638953
 20
32.612947645982
 11
26.255721038403
 21
35.430287411971
  0
LINE
  8
Layer4
  6
CONTINUOUS
 62
8
 10
18.925000000000
 20
33.150558110610
 11
18.925000000000
 21
38.785237642589
  0
ARC
  8
Layer4
  6
CONTINUOUS
 62
8
 10
19.081818181818
 20
41.717897876600
 40
1.000000000000
 50
0.000000000000
 51
0.000000000000
  0
LINE
  8
Layer4
  6
CONTINUOUS
 62
8
 10
20.197948361047
 20
39.322848107217
 11
23.094278961597
 21
36.505508341228
  0
LINE
  8
Layer4
  6
CONTINUOUS
 62
8
 10
20.197948361047
 20
32.612947645982
 11
23.094278961597
 21
35.430287411971
  0
LINE
  8
Layer4
  6
CONTINUOUS
 62
8
 10
21.857660234011
 20
30.217897876600
 11
27.492339765989
 21
30.217897876600
  0
ARC
  8
Layer4
  6
CONTINUOUS
 62
8
 10
19.081818181818
 20
30.217897876600
 40
1.000000000000
 50
0.000000000000
 51
0.000000000000
  0
LINE
  8
Layer4
  6
CONTINUOUS
 62
8
 10
28.029950230617
 20
31.490846237647
 11
25.212610464628
 21
34.387176838197
  0
LINE
  8
Layer4
  6
CONTINUOUS
 62
8
 10
21.320049769383
 20
31.490846237647
 11
24.137389535372
 21
34.387176838197
  0
LINE
  8
Layer4
  6
CONTINUOUS
 62
8
 10
21.857660234011
 20
41.717897876600
 11
27.492339765989
 21
41.717897876600
  0
LINE
  8
Layer4
  6
CONTINUOUS
 62
8
 10
28.029950230617
 20
40.444949515552
 11
25.212610464628
 21
37.548618915002
  0
LINE
  8
Layer4
  6
CONTINUOUS
 62
8
 10
21.320049769383
 20
40.444949515552
 11
24.137389535372
 21
37.548618915002
  0
ARC
  8
Layer4
  6
CONTINUOUS
 62
8
 10
21.857660234011
 20
40.967897876600
 40
0.750000000000
 50
90.000000000000
 51
224.207942907837
  0
ARC
  8
Layer4
  6
CONTINUOUS
 62
8
 10
27.492339765989
 20
40.967897876600
 40
0.750000000000
 50
-44.207942907837
 51
90.000000000000
  0
ARC
  8
Layer4
  6
CONTINUOUS
 62
8
 10
29.675000000000
 20
38.785237642589
 40
0.750000000000
 50
0.000000000000
 51
134.207942907837
  0
ARC
  8
Layer4
  6
CONTINUOUS
 62
8
 10
29.675000000000
 20
33.150558110610
 40
0.750000000000
 50
-134.207942907837
 51
0.000000000000
  0
ARC
  8
Layer4
  6
CONTINUOUS
 62
8
 10
26.778669399450
 20
35.967897876600
 40
0.750000000000
 50
134.207942907838
 51
225.792057092163
  0
ARC
  8
Layer4
  6
CONTINUOUS
 62
8
 10
22.571330600550
 20
35.967897876600
 40
0.750000000000
 50
-45.792057092163
 51
45.792057092162
  0
ARC
  8
Layer4
  6
CONTINUOUS
 62
8
 10
19.675000000000
 20
38.785237642589
 40
0.750000000000
 50
45.792057092163
 51
180.000000000000
  0
ARC
  8
Layer4
  6
CONTINUOUS
 62
8
 10
19.675000000000
 20
33.150558110610
 40
0.750000000000
 50
-180.000000000000
 51
-45.792057092163
  0
ARC
  8
Layer4
  6
CONTINUOUS
 62
8
 10
21.857660234011
 20
30.967897876600
 40
0.750000000000
 50
135.792057092162
 51
270.000000000000
  0
ARC
  8
Layer4
  6
CONTINUOUS
 62
8
 10
24.675000000000
 20
33.864228477149
 40
0.750000000000
 50
44.207942907837
 51
135.792057092163
  0
ARC
  8
Layer4
  6
CONTINUOUS
 62
8
 10
27.492339765989
 20
30.967897876600
 40
0.750000000000
 50
-90.000000000000
 51
44.207942907838
  0
CIRCLE
  8
Layer4
  6
CONTINUOUS
 62
8
 10
37.000000000000
 20
40.967897876600
 40
0.800000000000
  0
CIRCLE
  8
Layer4
  6
CONTINUOUS
 62
8
 10
37.000000000000
 20
30.967897876600
 40
0.800000000000
  0
ARC
  8
Layer4
  6
CONTINUOUS
 62
8
 10
24.675000000000
 20
38.071567276050
 40
0.750000000000
 50
-135.792057092162
 51
-44.207942907838
  0
ARC
  8
Layer4
  6
CONTINUOUS
 62
8
 10
49.325000000000
 20
38.071567276050
 40
0.750000000000
 50
-135.792057092162
 51
-44.207942907838
  0
LINE
  8
Layer4
  6
CONTINUOUS
 62
8
 10
13.500000000000
 20
44.217897876600
 11
13.500000000000
 21
41.717897876600
  0
LINE
  8
Layer4
  6
CONTINUOUS
 62
8
 10
13.500000000000
 20
37.217897876600
 11
13.500000000000
 21
34.717897876600
  0
LINE
  8
Layer4
  6
CONTINUOUS
 62
8
 10
13.500000000000
 20
30.217897876600
 11
13.500000000000
 21
27.717897876600
  0
LINE
  8
Layer4
  6
CONTINUOUS
 62
8
 10
57.350000000000
 20
27.717897876600
 11
60.500000000000
 21
27.717897876600
  0
LINE
  8
Layer4
  6
CONTINUOUS
 62
8
 10
60.500000000000
 20
30.217897876600
 11
60.500000000000
 21
27.717897876600
  0
LINE
  8
Layer4
  6
CONTINUOUS
 62
8
 10
60.500000000000
 20
34.717897876600
 11
60.500000000000
 21
37.217897876600
  0
LINE
  8
Layer4
  6
CONTINUOUS
 62
8
 10
60.500000000000
 20
41.717897876600
 11
60.500000000000
 21
44.217897876600
  0
LINE
  8
Layer4
  6
CONTINUOUS
 62
8
 10
57.350000000000
 20
37.217897876600
 11
57.350000000000
 21
41.717897876600
  0
LINE
  8
Layer4
  6
CONTINUOUS
 62
8
 10
16.650000000000
 20
37.217897876600
 11
16.650000000000
 21
41.717897876600
  0
LINE
  8
Layer3
  6
CONTINUOUS
 62
8
 10
12.399999974665
 20
36.967897876600
 11
14.699999974665
 21
36.967897876600
  0
LINE
  8
Layer3
  6
CONTINUOUS
 62
8
 10
12.399999974665
 20
34.967897876600
 11
14.699999974665
 21
34.967897876600
  0
LINE
  8
Layer3
  6
CONTINUOUS
 62
8
 10
15.200000000000
 20
34.967897876600
 11
15.200000000000
 21
33.467897876600
  0
LINE
  8
Layer3
  6
CONTINUOUS
 62
8
 10
17.500000000000
 20
36.967897876600
 11
17.500000000000
 21
39.017677203352
  0
LINE
  8
Layer3
  6
CONTINUOUS
 62
8
 10
14.699999974665
 20
38.467897876600
 11
14.699999974665
 21
36.967897876600
  0
LINE
  8
Layer3
  6
CONTINUOUS
 62
8
 10
14.699999974665
 20
34.967897876600
 11
14.699999974665
 21
33.467897876600
  0
LINE
  8
Layer3
  6
CONTINUOUS
 62
8
 10
12.399999974665
 20
34.967897876600
 11
12.399999974665
 21
32.917677203352
  0
LINE
  8
Layer3
  6
CONTINUOUS
 62
8
 10
56.500000000000
 20
36.967897876600
 11
58.800000000000
 21
36.967897876600
  0
LINE
  8
Layer3
  6
CONTINUOUS
 62
8
 10
56.500000000000
 20
34.967897876600
 11
58.800000000000
 21
34.967897876600
  0
LINE
  8
Layer3
  6
CONTINUOUS
 62
8
 10
56.500000000000
 20
36.967897876600
 11
56.500000000000
 21
39.017897876600
  0
LINE
  8
Layer3
  6
CONTINUOUS
 62
8
 10
58.800000000000
 20
34.967897876600
 11
58.800000000000
 21
33.467897876600
  0
LINE
  8
Layer3
  6
CONTINUOUS
 62
8
 10
59.300000025335
 20
36.967897876600
 11
59.300000025335
 21
38.467897876600
  0
LINE
  8
Layer3
  6
CONTINUOUS
 62
8
 10
58.800000000000
 20
38.467677203352
 11
57.100000000000
 21
38.467677203352
  0
LINE
  8
Layer3
  6
CONTINUOUS
 62
8
 10
58.800000000000
 20
34.967897876600
 11
58.800000000000
 21
33.467677203352
  0
LINE
  8
Layer3
  6
CONTINUOUS
 62
8
 10
59.300000025335
 20
36.967897876600
 11
61.600000025335
 21
36.967897876600
  0
LINE
  8
Layer3
  6
CONTINUOUS
 62
8
 10
59.300000025335
 20
34.967897876600
 11
61.600000025335
 21
34.967897876600
  0
LINE
  8
Layer3
  6
CONTINUOUS
 62
8
 10
61.600000025335
 20
34.967897876600
 11
61.600000025335
 21
32.917677203352
  0
LINE
  8
Layer3
  6
CONTINUOUS
 62
8
 10
15.200000000000
 20
36.967897876600
 11
17.500000000000
 21
36.967897876600
  0
LINE
  8
Layer3
  6
CONTINUOUS
 62
8
 10
15.200000000000
 20
34.967897876600
 11
17.500000000000
 21
34.967897876600
  0
LINE
  8
Layer3
  6
DOT
 62
8
 10
12.399999974665
 20
36.967897876600
 11
12.399999974665
 21
34.967897876600
  0
LINE
  8
Layer3
  6
DOT
 62
8
 10
14.699999974665
 20
36.967897876600
 11
14.699999974665
 21
34.967897876600
  0
LINE
  8
Layer3
  6
DOT
 62
8
 10
15.200000000000
 20
36.967897876600
 11
15.200000000000
 21
34.967897876600
  0
LINE
  8
Layer3
  6
DOT
 62
8
 10
17.500000000000
 20
36.967897876600
 11
17.500000000000
 21
34.967897876600
  0
LINE
  8
Layer3
  6
DOT
 62
8
 10
56.500000000000
 20
36.967897876600
 11
56.500000000000
 21
34.967897876600
  0
LINE
  8
Layer3
  6
DOT
 62
8
 10
58.800000000000
 20
36.967897876600
 11
58.800000000000
 21
34.967897876600
  0
LINE
  8
Layer3
  6
DOT
 62
8
 10
59.300000025335
 20
36.967897876600
 11
59.300000025335
 21
34.967897876600
  0
LINE
  8
Layer3
  6
DOT
 62
8
 10
61.600000025335
 20
36.967897876600
 11
61.600000025335
 21
34.967897876600
  0
LINE
  8
Layer0
  6
CONTINUOUS
 62
8
 10
33.500000000000
 20
96.640307334882
 11
33.500000000000
 21
88.640307334882
  0
LINE
  8
Layer0
  6
CONTINUOUS
 62
8
 10
40.500000000000
 20
96.640307334882
 11
40.500000000000
 21
88.640307334882
  0
LINE
  8
Layer0
  6
CONTINUOUS
 62
8
 10
33.500000000000
 20
96.640307334882
 11
40.500000000000
 21
96.640307334882
  0
LINE
  8
Layer0
  6
CONTINUOUS
 62
8
 10
40.500000000000
 20
88.640307334882
 11
33.500000000000
 21
88.640307334882
  0
LINE
  8
Layer0
  6
CONTINUOUS
 62
8
 10
33.500000000000
 20
90.640307334882
 11
40.500000000000
 21
90.640307334882
  0
CIRCLE
  8
Layer0
  6
CONTINUOUS
 62
8
 10
35.250000000000
 20
93.640307334882
 40
0.700000000000
  0
CIRCLE
  8
Layer0
  6
CONTINUOUS
 62
8
 10
38.750000000000
 20
93.640307334882
 40
0.700000000000
  0
CIRCLE
  8
Layer0
  6
CONTINUOUS
 62
8
 10
38.270000000000
 20
89.640307334882
 40
0.500000000000
  0
CIRCLE
  8
Layer0
  6
CONTINUOUS
 62
8
 10
35.730000000000
 20
89.640307334882
 40
0.500000000000
  0
CIRCLE
  8
Layer0
  6
CONTINUOUS
 62
8
 10
38.270000000000
 20
87.340307334882
 40
0.500000000000
  0
CIRCLE
  8
Layer0
  6
CONTINUOUS
 62
8
 10
35.730000000000
 20
87.340307334882
 40
0.500000000000
  0
LINE
  8
Layer0
  6
CONTINUOUS
 62
8
 10
39.510000000000
 20
1.000000000000
 11
54.750000000000
 21
1.000000000000
  0
LINE
  8
Layer0
  6
CONTINUOUS
 62
8
 10
54.750000000000
 20
1.000000000000
 11
54.750000000000
 21
3.540000000000
  0
LINE
  8
Layer0
  6
CONTINUOUS
 62
8
 10
54.750000000000
 20
3.540000000000
 11
39.510000000000
 21
3.540000000000
  0
LINE
  8
Layer0
  6
CONTINUOUS
 62
8
 10
39.510000000000
 20
3.540000000000
 11
39.510000000000
 21
1.000000000000
  0
LINE
  8
Layer0
  6
CONTINUOUS
 62
8
 10
34.490000000000
 20
1.000000000000
 11
19.250000000000
 21
1.000000000000
  0
LINE
  8
Layer0
  6
CONTINUOUS
 62
8
 10
19.250000000000
 20
1.000000000000
 11
19.250000000000
 21
3.540000000000
  0
LINE
  8
Layer0
  6
CONTINUOUS
 62
8
 10
19.250000000000
 20
3.540000000000
 11
34.490000000000
 21
3.540000000000
  0
LINE
  8
Layer0
  6
CONTINUOUS
 62
8
 10
34.490000000000
 20
3.540000000000
 11
34.490000000000
 21
1.000000000000
  0
LINE
  8
Layer0
  6
CONTINUOUS
 62
8
 10
50.800000000000
 20
14.836685930723
 11
23.200000000000
 21
14.836685930723
  0
LINE
  8
Layer0
  6
CONTINUOUS
 62
8
 10
23.200000000000
 20
4.836685930723
 11
23.200000000000
 21
14.836685930723
  0
LINE
  8
Layer0
  6
CONTINUOUS
 62
8
 10
13.500000000000
 20
55.017897876600
 11
13.500000000000
 21
6.784273702403
  0
LINE
  8
Layer0
  6
CONTINUOUS
 62
8
 10
15.000000000000
 20
25.167897876600
 11
15.000000000000
 21
46.767897876600
  0
LINE
  8
Layer0
  6
CONTINUOUS
 62
8
 10
59.000000000000
 20
55.017897876600
 11
59.000000000000
 21
51.767897876600
  0
LINE
  8
Layer0
  6
CONTINUOUS
 62
8
 10
59.000000000000
 20
46.767897876600
 11
59.000000000000
 21
25.167897876600
  0
LINE
  8
Layer0
  6
CONTINUOUS
 62
8
 10
59.000000000000
 20
20.167897876600
 11
59.000000000000
 21
14.836685930723
  0
LINE
  8
Layer0
  6
CONTINUOUS
 62
8
 10
60.500000000000
 20
4.936685930723
 11
60.500000000000
 21
55.017897876600
  0
LINE
  8
Layer0
  6
CONTINUOUS
 62
8
 10
69.000000000000
 20
62.250000000000
 11
61.000000000000
 21
62.250000000000
  0
LINE
  8
Layer0
  6
CONTINUOUS
 62
8
 10
69.000000000000
 20
69.250000000000
 11
61.000000000000
 21
69.250000000000
  0
LINE
  8
Layer0
  6
CONTINUOUS
 62
8
 10
69.000000000000
 20
62.250000000000
 11
69.000000000000
 21
69.250000000000
  0
LINE
  8
Layer0
  6
CONTINUOUS
 62
8
 10
61.000000000000
 20
69.250000000000
 11
61.000000000000
 21
62.250000000000
  0
LINE
  8
Layer0
  6
CONTINUOUS
 62
8
 10
63.000000000000
 20
62.250000000000
 11
63.000000000000
 21
69.250000000000
  0
CIRCLE
  8
Layer0
  6
CONTINUOUS
 62
8
 10
66.000000000000
 20
64.000000000000
 40
0.700000000000
  0
CIRCLE
  8
Layer0
  6
CONTINUOUS
 62
8
 10
66.000000000000
 20
67.500000000000
 40
0.700000000000
  0
CIRCLE
  8
Layer0
  6
CONTINUOUS
 62
8
 10
59.700000000000
 20
67.020000000000
 40
0.500000000000
  0
CIRCLE
  8
Layer0
  6
CONTINUOUS
 62
8
 10
62.000000000000
 20
67.020000000000
 40
0.500000000000
  0
CIRCLE
  8
Layer0
  6
CONTINUOUS
 62
8
 10
62.000000000000
 20
64.480000000000
 40
0.500000000000
  0
CIRCLE
  8
Layer0
  6
CONTINUOUS
 62
8
 10
59.700000000000
 20
64.480000000000
 40
0.500000000000
  0
LINE
  8
Layer0
  6
CONTINUOUS
 62
8
 10
5.000000000000
 20
62.250000000000
 11
13.000000000000
 21
62.250000000000
  0
LINE
  8
Layer0
  6
CONTINUOUS
 62
8
 10
5.000000000000
 20
69.250000000000
 11
13.000000000000
 21
69.250000000000
  0
LINE
  8
Layer0
  6
CONTINUOUS
 62
8
 10
5.000000000000
 20
62.250000000000
 11
5.000000000000
 21
69.250000000000
  0
LINE
  8
Layer0
  6
CONTINUOUS
 62
8
 10
13.000000000000
 20
69.250000000000
 11
13.000000000000
 21
62.250000000000
  0
LINE
  8
Layer0
  6
CONTINUOUS
 62
8
 10
11.000000000000
 20
62.250000000000
 11
11.000000000000
 21
69.250000000000
  0
CIRCLE
  8
Layer0
  6
CONTINUOUS
 62
8
 10
8.000000000000
 20
64.000000000000
 40
0.700000000000
  0
CIRCLE
  8
Layer0
  6
CONTINUOUS
 62
8
 10
8.000000000000
 20
67.500000000000
 40
0.700000000000
  0
CIRCLE
  8
Layer0
  6
CONTINUOUS
 62
8
 10
14.300000000000
 20
67.020000000000
 40
0.500000000000
  0
CIRCLE
  8
Layer0
  6
CONTINUOUS
 62
8
 10
12.000000000000
 20
67.020000000000
 40
0.500000000000
  0
CIRCLE
  8
Layer0
  6
CONTINUOUS
 62
8
 10
12.000000000000
 20
64.480000000000
 40
0.500000000000
  0
CIRCLE
  8
Layer0
  6
CONTINUOUS
 62
8
 10
14.300000000000
 20
64.480000000000
 40
0.500000000000
  0
LINE
  8
Layer0
  6
CONTINUOUS
 62
1
 10
5.000000000000
 20
65.750000000000
 11
-109.540468183878
 21
65.750000000000
  0
LINE
  8
Layer0
  6
CONTINUOUS
 62
1
 10
5.000000000000
 20
65.750000000000
 11
-109.383494453037
 21
71.744584930918
  0
LINE
  8
Layer0
  6
CONTINUOUS
 62
1
 10
5.000000000000
 20
65.750000000000
 11
-109.383494453037
 21
59.755415069082
  0
LINE
  8
Layer0
  6
CONTINUOUS
 62
1
 10
37.000000000000
 20
96.640307334882
 11
37.000000000000
 21
211.180775518760
  0
LINE
  8
Layer0
  6
CONTINUOUS
 62
1
 10
37.000000000000
 20
96.640307334882
 11
42.994584930918
 21
211.023801787919
  0
LINE
  8
Layer0
  6
CONTINUOUS
 62
1
 10
37.000000000000
 20
96.640307334882
 11
31.005415069082
 21
211.023801787919
  0
LINE
  8
Layer0
  6
CONTINUOUS
 62
1
 10
69.000000000000
 20
65.750000000000
 11
183.540468183878
 21
65.750000000000
  0
LINE
  8
Layer0
  6
CONTINUOUS
 62
1
 10
69.000000000000
 20
65.750000000000
 11
183.383494453037
 21
71.744584930918
  0
LINE
  8
Layer0
  6
CONTINUOUS
 62
1
 10
69.000000000000
 20
65.750000000000
 11
183.383494453037
 21
59.755415069082
  0
LINE
  8
Layer0
  6
CONTINUOUS
 62
8
 10
6.757359312881
 20
79.992640687119
 11
12.414213562373
 21
74.335786437627
  0
LINE
  8
Layer0
  6
CONTINUOUS
 62
8
 10
11.707106781187
 20
84.942388155425
 11
17.363961030679
 21
79.285533905933
  0
LINE
  8
Layer0
  6
CONTINUOUS
 62
8
 10
6.757359312881
 20
79.992640687119
 11
11.707106781187
 21
84.942388155425
  0
LINE
  8
Layer0
  6
CONTINUOUS
 62
8
 10
17.363961030679
 20
79.285533905933
 11
12.414213562373
 21
74.335786437627
  0
LINE
  8
Layer0
  6
CONTINUOUS
 62
8
 10
11.000000000000
 20
75.750000000000
 11
15.949747468306
 21
80.699747468306
  0
CIRCLE
  8
Layer0
  6
CONTINUOUS
 62
8
 10
10.116116523517
 20
79.108757210636
 40
0.700000000000
  0
CIRCLE
  8
Layer0
  6
CONTINUOUS
 62
8
 10
12.590990257670
 20
81.583630944789
 40
0.700000000000
  0
CIRCLE
  8
Layer0
  6
CONTINUOUS
 62
8
 10
15.080006127446
 20
78.415792565073
 40
0.500000000000
  0
CIRCLE
  8
Layer0
  6
CONTINUOUS
 62
8
 10
13.283954903233
 20
76.619741340859
 40
0.500000000000
  0
CIRCLE
  8
Layer0
  6
CONTINUOUS
 62
8
 10
16.706351724175
 20
76.789446968344
 40
0.500000000000
  0
CIRCLE
  8
Layer0
  6
CONTINUOUS
 62
8
 10
14.910300499962
 20
74.993395744130
 40
0.500000000000
  0
LINE
  8
Layer0
  6
CONTINUOUS
 62
1
 10
9.232233047034
 20
82.467514421272
 11
-71.760108726068
 21
163.459856194374
  0
LINE
  8
Layer0
  6
CONTINUOUS
 62
1
 10
9.232233047034
 20
82.467514421272
 11
-75.887923191573
 21
159.110047349778
  0
LINE
  8
Layer0
  6
CONTINUOUS
 62
1
 10
9.232233047034
 20
82.467514421272
 11
-67.410299881472
 21
167.587670659879
  0
LINE
  8
Layer0
  6
CONTINUOUS
 62
8
 10
67.242640687119
 20
79.992640687119
 11
61.585786437627
 21
74.335786437627
  0
LINE
  8
Layer0
  6
CONTINUOUS
 62
8
 10
62.292893218813
 20
84.942388155425
 11
56.636038969321
 21
79.285533905933
  0
LINE
  8
Layer0
  6
CONTINUOUS
 62
8
 10
67.242640687119
 20
79.992640687119
 11
62.292893218813
 21
84.942388155425
  0
LINE
  8
Layer0
  6
CONTINUOUS
 62
8
 10
56.636038969321
 20
79.285533905933
 11
61.585786437627
 21
74.335786437627
  0
LINE
  8
Layer0
  6
CONTINUOUS
 62
8
 10
63.000000000000
 20
75.750000000000
 11
58.050252531694
 21
80.699747468306
  0
CIRCLE
  8
Layer0
  6
CONTINUOUS
 62
8
 10
63.883883476483
 20
79.108757210636
 40
0.700000000000
  0
CIRCLE
  8
Layer0
  6
CONTINUOUS
 62
8
 10
61.409009742330
 20
81.583630944789
 40
0.700000000000
  0
CIRCLE
  8
Layer0
  6
CONTINUOUS
 62
8
 10
58.919993872554
 20
78.415792565073
 40
0.500000000000
  0
CIRCLE
  8
Layer0
  6
CONTINUOUS
 62
8
 10
60.716045096767
 20
76.619741340859
 40
0.500000000000
  0
CIRCLE
  8
Layer0
  6
CONTINUOUS
 62
8
 10
57.293648275825
 20
76.789446968344
 40
0.500000000000
  0
CIRCLE
  8
Layer0
  6
CONTINUOUS
 62
8
 10
59.089699500038
 20
74.993395744130
 40
0.500000000000
  0
LINE
  8
Layer0
  6
CONTINUOUS
 62
1
 10
64.767766952966
 20
82.467514421272
 11
145.760108726068
 21
163.459856194374
  0
LINE
  8
Layer0
  6
CONTINUOUS
 62
1
 10
64.767766952966
 20
82.467514421272
 11
149.887923191573
 21
159.110047349778
  0
LINE
  8
Layer0
  6
CONTINUOUS
 62
1
 10
64.767766952966
 20
82.467514421272
 11
141.410299881472
 21
167.587670659879
  0
ENDSEC
  0
EOF
